<?xml version="1.0" encoding="utf-8"?>
<!-- Generator: Adobe Illustrator 23.0.3, SVG Export Plug-In . SVG Version: 6.00 Build 0)  -->
<svg version="1.1" xmlns="http://www.w3.org/2000/svg" xmlns:xlink="http://www.w3.org/1999/xlink" x="0px" y="0px"
	 width="380.0126px" height="122.5841px" viewBox="0 0 380.0126 122.5841" style="enable-background:new 0 0 380.0126 122.5841;"
	 xml:space="preserve">
<style type="text/css">
	.st0{display:none;}
	.st1{display:inline;}
	.st2{fill:#CACBCC;}
	.st3{fill:#8FC73E;}
	.st4{fill:#111820;}
	.st5{fill:#E75300;}
	.st6{fill:#EC7323;}
	.st7{fill:#F38B00;}
	.st8{fill:#E65525;}
	.st9{fill:#E02226;}
	.st10{fill:#E6E7E8;}
	.st11{fill:#ED1C24;}
	.st12{fill:#FFFFFF;}
	.st13{clip-path:url(#SVGID_2_);fill:#40474F;}
	.st14{clip-path:url(#SVGID_4_);fill:#40474F;}
	.st15{clip-path:url(#SVGID_6_);fill:#40474F;}
	.st16{clip-path:url(#SVGID_8_);fill:#8FC73E;}
	.st17{clip-path:url(#SVGID_10_);fill:#8FC73E;}
	.st18{clip-path:url(#SVGID_12_);fill:#8FC73E;}
	.st19{clip-path:url(#SVGID_14_);fill:#40474F;}
	.st20{clip-path:url(#SVGID_16_);fill:#8FC73E;}
	.st21{clip-path:url(#SVGID_18_);fill:#40474F;}
	.st22{clip-path:url(#SVGID_20_);fill:#40474F;}
	.st23{clip-path:url(#SVGID_22_);fill:#40474F;}
	.st24{clip-path:url(#SVGID_24_);fill:#40474F;}
	.st25{clip-path:url(#SVGID_26_);fill:#40474F;}
	.st26{clip-path:url(#SVGID_28_);fill:#8FC73E;}
	.st27{clip-path:url(#SVGID_30_);fill:#8FC73E;}
	.st28{clip-path:url(#SVGID_32_);fill:#8FC73E;}
	.st29{clip-path:url(#SVGID_34_);fill:#40474F;}
	.st30{clip-path:url(#SVGID_36_);fill:#8FC73E;}
	.st31{clip-path:url(#SVGID_38_);fill:#40474F;}
	.st32{clip-path:url(#SVGID_40_);fill:#40474F;}
	.st33{fill:#40474F;}
	.st34{fill:#0D312B;}
	.st35{fill:none;}
	.st36{fill:#00FF00;}
	.st37{fill:#10312B;}
</style>
<g id="Layer_1" class="st0">
	<g class="st1">
		<path class="st2" d="M140.1014,97.9722c-8.281,0-14.992,0.719-14.992,1.605c0,0.889,6.711,1.605,14.992,1.605
			c8.279,0,14.992-0.721,14.992-1.605C155.0934,98.6912,148.3804,97.9722,140.1014,97.9722"/>
		<g>
			<path class="st3" d="M133.7834,98.5782c-1.389,0-2.646-0.813-3.208-2.078l-3.745-8.443c-0.379-0.854-0.4-1.805-0.063-2.678
				c0.337-0.875,0.992-1.563,1.843-1.941l20.646-9.158c0.448-0.195,0.923-0.299,1.411-0.299c1.388,0,2.646,0.814,3.208,2.078
				l3.744,8.443c0.782,1.766-0.016,3.836-1.778,4.619l-20.646,9.158C134.7464,98.4782,134.2714,98.5782,133.7834,98.5782z
				 M150.6654,74.9782c-0.349,0-0.688,0.072-1.006,0.213l-20.646,9.158c-0.607,0.27-1.074,0.762-1.315,1.389
				c-0.24,0.625-0.226,1.305,0.044,1.91l3.746,8.445c0.54,1.219,2.071,1.818,3.3,1.271l20.645-9.157
				c1.261-0.56,1.83-2.039,1.271-3.299l-3.745-8.445C152.5584,75.5602,151.6584,74.9782,150.6654,74.9782z"/>
		</g>
	</g>
	<g class="st1">
		<path class="st2" d="M180.1014,97.9712c-8.281,0-14.992,0.72-14.992,1.606c0,0.885,6.711,1.604,14.992,1.604
			c8.279,0,14.992-0.721,14.992-1.604C195.0934,98.6912,188.3804,97.9712,180.1014,97.9712"/>
		<g>
			<path class="st3" d="M173.7834,98.5782c-1.389,0-2.646-0.813-3.208-2.078l-3.745-8.443c-0.379-0.854-0.4-1.805-0.063-2.678
				c0.337-0.875,0.992-1.563,1.843-1.941l20.646-9.158c0.448-0.197,0.923-0.299,1.411-0.299c1.388,0,2.646,0.814,3.208,2.078
				l3.744,8.443c0.782,1.766-0.016,3.836-1.778,4.619l-20.646,9.158C174.7464,98.4772,174.2714,98.5782,173.7834,98.5782z
				 M190.6654,74.9782c-0.349,0-0.688,0.07-1.006,0.213l-20.646,9.158c-0.607,0.27-1.074,0.762-1.315,1.388
				c-0.24,0.625-0.226,1.306,0.044,1.911l3.746,8.445c0.54,1.219,2.071,1.816,3.3,1.271l20.645-9.159
				c1.261-0.559,1.83-2.039,1.271-3.299l-3.745-8.443C192.5584,75.5602,191.6584,74.9782,190.6654,74.9782z"/>
		</g>
	</g>
	<g class="st1">
		<path class="st2" d="M332.6414,109.1872c-0.51-1.559-2.68-2.377-5.622-2.377c-0.479,0-0.988,0.034-1.507,0.081
			c0.021,0.031,0.033,0.065,0.05,0.099c1.348,0.182,2.674,0.613,3.979,0.949c1.397,0.361,3.008,2.055,1.194,3.209
			c-1.582,1.008-4.515,0.025-6.168-0.402c-0.834-0.215-1.578-0.396-2.252-0.674c-0.022,0-0.043,0.006-0.065,0.006
			c-0.039,0-0.068-0.014-0.104-0.016c-0.052,0.005-0.099,0.016-0.15,0.016c-0.868,0-1.354-0.594-1.461-1.256
			c-0.146-0.158-0.282-0.33-0.418-0.525c-0.055-0.08-0.094-0.161-0.131-0.242c-0.203,0.066-0.401,0.141-0.601,0.212
			c0.183,0.399,0.207,0.894-0.028,1.396c-1.035,2.213-0.562,6.643-3.986,6.805c-1.401,0.068-2.586-0.604-3.073-1.932
			c-0.231-0.627-0.004-1.584,0.379-2.111c0.127-0.174,0.808-0.984,0.801-0.936c0.005-0.047,0.021-0.082,0.027-0.125
			c-2.19,1.688-3.343,3.539-2.853,5.035c0.51,1.559,2.68,2.377,5.623,2.377c2.041,0,4.45-0.395,6.938-1.209
			C329.2834,115.5742,333.5064,111.8242,332.6414,109.1872z"/>
		<path class="st3" d="M315.5234,78.6872l-0.024,0.135l-0.392,2.178c-0.021,0.158-0.041,0.289-0.041,0.354
			c0.002,0.033,0.017,0.095,0.026,0.161c0.065,0.249,0.22,0.803,0.509,1.75L315.5234,78.6872z M316.1424,87.1502
			c-0.221,0-0.424-0.134-0.51-0.345c-0.101-0.246-0.158-0.408-0.176-0.452c-0.162-0.469-0.414-1.207-0.664-1.975
			c-0.455-1.463-0.677-2.266-0.771-2.616c-0.043-0.207-0.058-0.317-0.058-0.41c0-0.103,0.017-0.257,0.056-0.528l0.396-2.203
			c0.387-2.014,0.883-4.404,0.883-4.404c0.058-0.271,0.306-0.457,0.58-0.438c0.274,0.021,0.491,0.242,0.508,0.521l0.233,4.188
			l0.117,6.891l-0.002,0.076l-0.043,1.168c-0.011,0.26-0.199,0.479-0.455,0.521L316.1424,87.1502z M313.5354,115.8242
			c0.121,0.072,0.354,0.17,0.789,0.242c0.293,0.057,0.578,0.084,0.858,0.084h0.082l0.076-0.004h0.002
			c0.276,0,0.481-0.012,0.608-0.025c0.054-0.037,0.115-0.063,0.181-0.08c0.483-0.115,1.31-0.422,1.401-1.17
			c0.158-1.297,0.427-3.043,0.504-3.547l0.021-0.088l0.01-0.064c-0.002-0.156,0.045-0.309,0.138-0.438
			c0.104-0.144,0.256-0.252,0.461-0.324c0.101-0.852,0.207-3.459,0.303-5.791c0.146-3.535,0.298-7.191,0.513-8.439
			c0.032-0.191,0.168-0.354,0.353-0.421c0.106-0.041,0.221-0.045,0.327-0.021c0.097-0.006,0.191,0.021,0.279,0.068
			c0.172,0.096,0.278,0.277,0.282,0.475l0.035,3.705c0.015,2.702,0.031,6.401,0.099,8.204l0.012,0.363l0.037,0.071
			c0.035,0.091,0.086,0.16,0.127,0.217c0.041,0.058,0.082,0.115,0.113,0.199l0.028,0.097l0.015,0.06l0.004,0.021
			c0.03,0.17,0.028,0.29,0.024,0.372l0.453,0.117c1.805,0.523,3.403,0.897,4.769,1.119c0.209,0.037,0.373,0.063,0.489,0.074
			l0.063,0.006c0.435,0.061,0.843,0.104,1.218,0.129l0.057,0.004l0.216,0.014c0.334,0.02,0.623,0.023,0.871,0.023
			c0.778,0,1.063-0.076,1.135-0.1l0.091-0.056c0.063-0.03,0.247-0.185,0.422-0.468c0.047-0.066,0.065-0.095,0.086-0.121
			c0.043-0.068,0.065-0.111,0.088-0.152l0.029-0.059l0.049-0.119l0.014-0.043l0.011-0.055c0.041-0.216-0.011-0.373-0.058-0.471
			l-0.026-0.064c-0.108-0.319-0.394-0.596-0.845-0.819l-0.067-0.03l-0.063-0.027c-0.209-0.102-0.435-0.18-0.664-0.234
			c-0.662-0.182-1.479-0.329-2.412-0.443c-0.473-0.058-0.844-0.094-1.094-0.111l-0.039-0.004c-0.18-0.017-0.287-0.021-0.291-0.021
			c-0.241-0.016-0.444-0.184-0.504-0.419c-0.037-0.159-0.004-0.322,0.086-0.45v-0.021l-0.119-1.277
			c-0.352-3.741-1.176-12.503-1.176-16.646c0-0.086,0.021-0.17,0.06-0.244c0.002-0.006,0.317-0.674,0.438-2v-0.098
			c0.092-1.15,0.012-2.433-0.238-3.809c-0.997-5.469-1.475-6.672-1.493-6.721c-0.242-0.684-0.406-1.236-0.498-1.678
			c-0.013-0.047-0.015-0.098-0.013-0.146c0.017-0.242,0.009-0.676,0.004-0.822c-0.004-0.21,0.109-0.404,0.294-0.502
			c0.187-0.098,0.411-0.082,0.579,0.041l2.152,1.556c0.119,0.036,0.225,0.112,0.295,0.214l1.461,1.068
			c0.125,0.072,0.66,0.375,1.19,0.695l1.604,1.088c0.039,0,0.09-0.002,0.15-0.006h0.049c0.053-0.082,0.162-0.277,0.312-0.707
			l0.021-0.057l0.012-0.035c0.277-0.847,0.593-2.205,0.859-3.734c0.024-0.145,0.051-0.277,0.075-0.409l0.373-1.438
			c0.063-0.242,0.282-0.41,0.532-0.41h2.361l0.008-2.748c0-0.158,0.07-0.307,0.185-0.407c-0.114-0.104-0.185-0.254-0.185-0.409
			v-0.124c0-0.18,0.088-0.348,0.234-0.448l0.069-0.041l-0.112-0.076c-0.121-0.104-0.191-0.256-0.191-0.416v-2.75
			c-0.098-0.015-0.188-0.053-0.266-0.106c-0.089,0.062-0.197,0.099-0.313,0.099h-3.459l-0.01,3.158c0,0.219-0.129,0.415-0.328,0.503
			c-0.1,0.044-0.207,0.058-0.313,0.04c0.039,0.143,0.095,0.311,0.166,0.497l0.021,0.054c0.049,0.162,0.092,0.291,0.131,0.414
			c0.074,0.271,0.156,0.57,0.261,0.767c0.043,0.079,0.063,0.169,0.063,0.259v1.729l0.139,0.013c0.164,0,0.318,0.069,0.423,0.194
			c0.104,0.127,0.147,0.289,0.118,0.45c-0.079,0.455-0.178,0.985-0.271,1.468c-0.097,0.439-0.195,0.881-0.3,1.285l-0.024,0.07
			c-0.063,0.167-0.123,0.4-0.185,0.633l-0.063,0.239c-0.138,0.413-0.244,0.659-0.358,0.827c-0.07,0.101-0.175,0.176-0.291,0.211
			c-0.052,0.017-0.14,0.029-0.192,0.029c-0.5,0-1.537-0.693-1.783-0.905c-0.104-0.093-0.287-0.261-0.492-0.454
			c-0.317-0.3-0.854-0.803-1.026-0.912l-0.09-0.068l-0.771-0.738c-1.187-1.141-2.527-2.432-3.119-2.728
			c-0.108-0.054-0.222-0.112-0.336-0.172l-0.093-0.048l-0.676-0.375l-0.051-0.029l-0.166-0.102l-0.101-0.078
			c-0.754-0.48-1.692-1.207-1.646-2.141c0.004-0.099,0.035-0.191,0.09-0.272l0.009-0.044c0.028-0.166,0.131-0.311,0.278-0.391
			c0.147-0.082,0.326-0.09,0.479-0.022c0.367,0.157,0.709,0.237,1.017,0.237l0.092-0.002h0.063l0.039-0.006
			c1.521-0.193,3.834-3.037,4-7.055c0.026-0.589,0.009-1.178-0.058-1.756c-0.071-0.635-0.239-1.258-0.496-1.848
			c-0.104-0.24-0.024-0.521,0.189-0.672c0.172-0.117,0.289-0.256,0.354-0.414c0.229-0.549-0.078-1.33-0.408-1.916
			c-0.082,0.055-0.198,0.1-0.354,0.1c-0.276,0-0.594-0.139-1.088-0.365c-0.429-0.195-0.933-0.426-1.427-0.539
			c-1.063-0.246-1.791-0.248-2.092-0.229c-0.19,0.008-0.356-0.072-0.466-0.211c-0.415,0.527-0.885,0.803-1.139,0.924
			c-0.149,0.07-0.328,0.07-0.479-0.002c-0.097-0.049-0.175-0.121-0.229-0.211l-0.867,1.309c-0.116,0.178-0.321,0.271-0.537,0.24
			c-0.063-0.01-0.127-0.029-0.182-0.061l-0.119,0.436c-0.067,0.254-0.308,0.43-0.569,0.404l-0.404-0.029l0.386,0.561
			c0.086,0.123,0.117,0.275,0.086,0.424s-0.119,0.275-0.248,0.354l-0.101,0.063c0.076,0.042,0.144,0.1,0.192,0.172
			c0.091,0.132,0.119,0.295,0.08,0.451c-0.075,0.3-0.205,0.9-0.19,1.555c0.017,1.146,0.248,1.877,0.384,2.207
			c0.067,0.166,0.051,0.352-0.043,0.501c-0.119,0.19-0.244,0.495-0.162,0.854c0.084,0.362,0.396,0.793,1.021,0.901
			c0.161,0.027,0.305,0.127,0.385,0.271c0.632,1.123,1.474,2.105,2.367,2.765c0.144,0.104,0.228,0.272,0.224,0.451
			c0,0.121-0.011,0.307-0.05,0.505c-0.045,0.197-0.108,0.37-0.192,0.535l-0.028,0.049c-0.113,0.173-0.263,0.376-0.394,0.548
			l-0.037,0.043c-0.11,0.119-0.233,0.234-0.371,0.349l-0.176,0.142c-0.449,0.362-1.127,0.913-1.771,1.586l-0.021,0.021l-0.009,0.01
			l-0.114,0.119c-1.179,1.267-1.772,2.545-1.772,3.812c0,0.174-0.002,0.358-0.009,0.543c-0.086,1.004-0.121,1.882-0.121,1.892
			l-0.231,2.396l-0.192,1.418l-0.112,1.244c0.233,0.798,1.596,5.413,1.969,6.84c0.035,0.185,0.06,0.326,0.082,0.47l0.009,0.096
			l-0.025,1.195l-0.012,0.094l-0.14,0.709l-0.021,0.078c-0.17,0.479-0.299,0.899-0.299,1.616c-0.004,0.116-0.009,0.187-0.009,0.261
			v0.172v0.095c0.011,0.505,0.035,0.862,0.085,1.202l0.028,0.31c0.06,0.693,0.129,1.481,0.153,2.242c0,0.657-0.03,1.422-0.09,2.354
			c-0.019,0.24-0.037,0.485-0.06,0.754c-0.271,3.254-0.72,7.854-0.808,8.734c0.037,0.069,0.097,0.174,0.181,0.295l0.063,0.108
			c0.08,0.141,0.092,0.31,0.037,0.461l-0.035,0.073c-0.097,0.242-0.449,1.087-1.244,2.604l-0.19,0.338
			c-0.123,0.221-0.228,0.42-0.317,0.609l-0.138,0.25c-0.247,0.445-0.338,0.846-0.269,1.182c0.031,0.188,0.097,0.32,0.22,0.453
			c0.17,0.203,0.375,0.355,0.629,0.48l0.063,0.035h0.006v-0.009H313.5354z M315.1844,117.2492c-0.353,0-0.707-0.033-1.056-0.102
			c-0.485-0.082-0.875-0.209-1.172-0.391c-0.382-0.188-0.695-0.438-0.938-0.727c-0.259-0.277-0.421-0.605-0.478-0.99
			c-0.121-0.57,0.008-1.225,0.387-1.906l0.123-0.227c0.088-0.182,0.201-0.4,0.34-0.646l0.181-0.319
			c0.619-1.178,0.959-1.937,1.11-2.293c-0.144-0.229-0.213-0.41-0.221-0.434c-0.031-0.079-0.043-0.165-0.033-0.249
			c0.007-0.054,0.521-5.281,0.817-8.866c0.021-0.263,0.041-0.504,0.058-0.736c0.06-0.904,0.088-1.646,0.091-2.261
			c-0.025-0.713-0.091-1.452-0.152-2.166l-0.022-0.276c-0.053-0.356-0.082-0.762-0.09-1.272c-0.002-0.063-0.002-0.11-0.002-0.158
			l0.549-0.094l-0.549,0.004v-0.056c0-0.114,0.004-0.196,0.006-0.277c0-0.871,0.164-1.422,0.351-1.947l0.123-0.619l0.021-1.101
			c-0.019-0.114-0.039-0.231-0.062-0.353c-0.388-1.476-1.968-6.823-1.984-6.879c-0.021-0.072-0.026-0.148-0.018-0.226l0.071-0.551
			l0.056-0.783l0.192-1.433l0.228-2.342c0-0.006,0.034-0.884,0.123-1.875c0.002-0.144,0.006-0.317,0.006-0.483
			c0-1.554,0.694-3.086,2.063-4.558l0.121-0.125l0.058-0.062c0.668-0.701,1.381-1.276,1.853-1.656l0.17-0.139
			c0.09-0.074,0.174-0.151,0.248-0.229c0.104-0.138,0.219-0.295,0.311-0.434c0.039-0.077,0.068-0.154,0.087-0.236l0.006-0.025
			c-0.877-0.7-1.668-1.629-2.31-2.713c-0.824-0.236-1.455-0.873-1.642-1.68c-0.106-0.479-0.049-0.977,0.166-1.434
			c-0.176-0.514-0.354-1.286-0.37-2.356c-0.009-0.435,0.034-0.847,0.09-1.188c-0.152,0.002-0.228,0.006-0.229,0.004
			c-0.351,0-0.625-0.206-0.718-0.512c-0.096-0.31,0.031-0.65,0.313-0.822l0.595-0.369l-0.506-0.734
			c-0.158-0.227-0.171-0.529-0.031-0.768c0.135-0.238,0.406-0.391,0.683-0.361l0.733,0.053l0.267-0.973
			c0.08-0.305,0.362-0.525,0.687-0.529c0.176,0.002,0.34,0.064,0.467,0.168l0.789-1.189c0.133-0.201,0.358-0.322,0.603-0.322
			l0.134,0.014c0.239,0.045,0.436,0.205,0.528,0.424c0.067-0.072,0.14-0.154,0.206-0.248l0.302-0.633
			c0.132-0.273,0.453-0.443,0.754-0.402c0.31,0.041,0.558,0.279,0.608,0.596l0.05,0.291c0.44,0.014,1.09,0.074,1.905,0.262
			c0.604,0.139,1.166,0.396,1.617,0.602c0.065,0.031,0.142,0.064,0.215,0.098c0.07-0.158,0.193-0.289,0.361-0.365
			c0.305-0.137,0.659-0.047,0.86,0.207c0.172,0.217,1.636,2.143,0.991,3.676c-0.094,0.223-0.227,0.424-0.396,0.604
			c0.215,0.576,0.355,1.173,0.428,1.783c0.072,0.637,0.092,1.283,0.062,1.931c-0.179,4.361-2.692,7.728-4.873,8.082
			c-0.131,0.041-0.207,0.037-0.31,0.024c-0.188,0.011-0.381-0.002-0.578-0.032c0.179,0.182,0.461,0.409,0.904,0.688l0.092,0.072
			l0.748,0.42l-0.168,0.533l0.254-0.488c0.107,0.056,0.215,0.109,0.318,0.162c0.743,0.373,2.028,1.607,3.391,2.92l0.734,0.703
			c0.248,0.172,0.635,0.528,1.143,1.009c0.191,0.178,0.357,0.336,0.455,0.42c0.174,0.149,0.531,0.366,0.806,0.507
			c0.017-0.045,0.032-0.095,0.051-0.15l0.056-0.203c0.063-0.246,0.131-0.5,0.203-0.703c0.102-0.394,0.196-0.816,0.287-1.231
			c0.057-0.293,0.114-0.608,0.172-0.914c-0.357-0.187-0.603-0.559-0.603-0.987v-1.607c-0.125-0.273-0.209-0.582-0.276-0.835
			c-0.037-0.108-0.084-0.252-0.136-0.417c-0.485-1.264-0.272-1.648-0.192-1.791c0.09-0.163,0.229-0.281,0.397-0.34
			c0.063-0.028,0.133-0.047,0.207-0.053v-2.373c0-0.611,0.498-1.111,1.108-1.111h2.908v-0.211c0-0.088,0.014-0.178,0.045-0.266
			v-0.008c0-0.305,0.246-0.549,0.551-0.549h0.006c0.179-0.063,0.361-0.063,0.539,0.002c0.285,0.025,0.552,0.262,0.552,0.547v0.008
			c0.028,0.088,0.045,0.178,0.045,0.266v0.408c0.3,0.197,0.494,0.537,0.494,0.914v2.352c0.239,0.165,0.416,0.443,0.459,0.771
			c0.024,0.188,0.008,0.367-0.048,0.528c0.05,0.063,0.089,0.136,0.117,0.212c0.156,0.432-0.067,0.898-0.528,1.176v2.373
			c0,0.61-0.498,1.108-1.108,1.108h-1.938l-0.26,0.995c-0.017,0.088-0.041,0.217-0.063,0.354c-0.162,0.924-0.489,2.646-0.894,3.868
			l-0.012,0.042l-0.031,0.092c-0.142,0.404-0.276,0.711-0.42,0.93l-0.074,0.168c-0.088,0.199-0.284,0.326-0.502,0.326h-0.065
			c-0.075,0.021-0.2,0.03-0.312,0.02c-0.043,0.004-0.117,0.006-0.178,0.006c-0.185,0-0.371-0.016-0.525-0.127l-1.668-1.135
			c-0.569-0.342-1.168-0.68-1.17-0.68l-0.053-0.035l-1.615-1.178l-0.024-0.021l-0.024-0.02l-0.035-0.021l-1.283-0.93
			c0.086,0.324,0.207,0.707,0.359,1.139c0.008,0.016,0.512,1.236,1.549,6.916c0.263,1.434,0.351,2.777,0.26,3.998l0.003,0.098
			c-0.104,1.279-0.38,2.07-0.5,2.366c0.014,4.136,0.821,12.735,1.17,16.427l0.112,1.225c0.234,0.021,0.521,0.052,0.841,0.092
			l0.073,0.01c0.972,0.118,1.82,0.271,2.492,0.459c0.319,0.075,0.619,0.184,0.901,0.316c0.06,0.023,0.101,0.045,0.14,0.063
			c0.709,0.355,1.172,0.829,1.385,1.416c0.117,0.249,0.229,0.636,0.142,1.114c-0.015,0.08-0.021,0.127-0.037,0.179l-0.036,0.101
			c-0.019,0.056-0.048,0.134-0.084,0.211l-0.058,0.111c-0.033,0.063-0.074,0.135-0.117,0.201l-0.028,0.049l-0.09,0.127
			c-0.205,0.338-0.5,0.643-0.783,0.805c-0.207,0.156-0.647,0.301-1.772,0.301c-0.265,0-0.572-0.008-0.935-0.025l-0.222-0.012
			l-0.063-0.006c-0.397-0.027-0.834-0.072-1.289-0.137c-0.153-0.016-0.354-0.043-0.59-0.088c-1.397-0.227-3.041-0.607-4.873-1.144
			l-0.701-0.182c-0.188-0.05-0.334-0.192-0.389-0.378c-0.188-0.243-0.179-0.508-0.172-0.646v-0.104
			c-0.068-0.096-0.148-0.219-0.218-0.377l-0.026-0.047c-0.133,2.303-0.258,2.32-0.676,2.381l-0.056,0.008l-0.013,0.078l-0.021,0.082
			c-0.092,0.59-0.338,2.209-0.485,3.426c-0.119,0.961-0.84,1.693-1.992,2.039c-0.241,0.182-0.682,0.201-1.256,0.201l-0.076,0.002
			h-0.126v-0.002H315.1844z"/>
	</g>
	<g class="st1">
		<path class="st3" d="M366.7924,19.2602l-1.85,0.077l-0.065-1.446c-0.007-0.114-0.064-0.219-0.161-0.281
			c-0.097-0.063-0.217-0.076-0.322-0.036c-0.416,0.159-0.837,0.299-1.255,0.447l-0.545-3.773c-0.018-0.113-0.086-0.211-0.188-0.266
			c-0.103-0.053-0.224-0.053-0.323-0.004c-0.338,0.168-0.679,0.336-1.021,0.504c-0.718-1.779-1.432-3.541-2.069-5.053
			c-0.046-0.109-0.144-0.188-0.258-0.211c-0.116-0.022-0.234,0.012-0.32,0.095c-5.514,5.41-11.137,9.224-16.764,11.405l-3.788-0.277
			c-0.4,0-0.855,0-1.051,6.469c-0.097,3.168-0.083,6.988,0.033,9.973c0.218,5.555,0.639,5.58,1.011,5.602l28.076,1.569
			c0.038,0.002,0.076,0.003,0.114,0.003c0.563,0,1.092-0.218,1.482-0.614c0.402-0.41,0.62-0.963,0.612-1.558l-0.021-1.468
			c0.564-0.439,0.943-1.111,0.943-1.861v-17.102C369.0674,20.1922,368.0604,19.2092,366.7924,19.2602z M364.3704,22.3802
			l-12.965-0.949c4.326-0.465,8.604-1.465,12.78-3.016L364.3704,22.3802z M362.4534,18.2652c-5.39,1.827-10.938,2.76-16.529,2.766
			l-0.859-0.063c5.99-1.1,11.78-3.605,16.896-6.131L362.4534,18.2652z M358.5364,10.1882c0.59,1.406,1.234,2.999,1.882,4.604
			c-4.979,2.402-10.534,4.691-16.239,5.615C349.0074,18.1632,353.8144,14.7562,358.5364,10.1882z M367.0224,42.9402
			c-0.273,0.278-0.669,0.419-1.053,0.401l-27.938-1.56c-0.736-1.676-0.752-18.803-0.021-20.614l27.65,2.022
			c0.837,0.058,1.526,0.813,1.538,1.683l0.229,17.021C367.4344,42.2962,367.2904,42.6672,367.0224,42.9402z M368.3544,38.5552
			c0,0.306-0.094,0.591-0.244,0.84l-0.196-14.534c-0.019-1.232-1.006-2.303-2.202-2.383l-0.624-0.046l-0.109-2.384l1.845-0.075
			h0.064c0.823,0,1.469,0.65,1.469,1.481L368.3544,38.5552L368.3544,38.5552z"/>
		<path class="st3" d="M369.9684,10.4012c1.705-1.415,3.567-2.677,5.586-3.708c2.018-1.031,4.202-1.824,6.506-2.264
			c1.725-0.336,3.514-0.457,5.306-0.36l2.078-4.888l8.666,11.522l-14.312,1.747l2.008-4.728c-1.108-0.173-2.242-0.255-3.392-0.219
			c-2.021,0.063-4.072,0.444-6.066,1.092c-1.995,0.65-3.938,1.554-5.787,2.646c-1.844,1.103-3.617,2.369-5.22,3.851
			C366.6924,13.3722,368.2674,11.8202,369.9684,10.4012z"/>
		<path class="st2" d="M353.1174,46.0292c-9.914,0-17.949,0.862-17.949,1.924c0,1.063,8.035,1.924,17.949,1.924
			c9.913,0,17.95-0.861,17.95-1.924C371.0674,46.8912,363.0304,46.0292,353.1174,46.0292"/>
		<path class="st3" d="M316.8974,0.6222c2.188-0.36,4.433-0.509,6.694-0.38c2.261,0.127,4.547,0.546,6.76,1.33
			c1.656,0.58,3.263,1.379,4.761,2.366l4.264-3.168l1.664,14.322l-13.235-5.718l4.12-3.067c-0.871-0.709-1.809-1.353-2.816-1.9
			c-1.774-0.967-3.74-1.673-5.787-2.12c-2.051-0.446-4.187-0.647-6.334-0.639c-2.146,0.021-4.317,0.219-6.446,0.689
			C312.5714,1.5352,314.7144,0.9902,316.8974,0.6222z"/>
	</g>
	<g class="st1">
		<path class="st3" d="M116.6184,82.9272l-1.646,0.066l-0.059-1.287c-0.006-0.104-0.061-0.194-0.145-0.252
			c-0.085-0.057-0.192-0.066-0.288-0.031c-0.371,0.143-0.744,0.267-1.117,0.397l-0.483-3.358c-0.016-0.102-0.076-0.188-0.166-0.236
			c-0.093-0.045-0.199-0.045-0.291-0.003c-0.299,0.149-0.604,0.3-0.906,0.448c-0.639-1.584-1.275-3.152-1.843-4.498
			c-0.041-0.101-0.128-0.168-0.23-0.189c-0.103-0.02-0.21,0.012-0.286,0.084c-4.906,4.818-9.914,8.213-14.926,10.156l-3.372-0.246
			c-0.356,0-0.762,0-0.936,5.758c-0.086,2.822-0.074,6.223,0.031,8.881c0.191,4.945,0.566,4.969,0.896,4.986l25,1.398
			c0.033,0,0.067,0.002,0.1,0.002c0.507,0,0.976-0.193,1.323-0.547c0.358-0.365,0.552-0.857,0.545-1.389l-0.018-1.307
			c0.502-0.395,0.844-0.99,0.844-1.658v-15.224C118.6474,83.7552,117.7484,82.8802,116.6184,82.9272z M114.4614,85.7052
			l-11.542-0.848c3.853-0.412,7.662-1.303,11.379-2.684L114.4614,85.7052z M112.7554,82.0412c-4.8,1.627-9.74,2.457-14.718,2.463
			l-0.768-0.057c5.334-0.979,10.488-3.211,15.043-5.459L112.7554,82.0412z M109.2684,74.8482c0.523,1.252,1.098,2.671,1.676,4.099
			c-4.436,2.141-9.381,4.18-14.461,5.001C100.7834,81.9512,105.0624,78.9162,109.2684,74.8482z M116.8224,104.0092
			c-0.242,0.248-0.592,0.373-0.936,0.357l-24.875-1.392c-0.656-1.491-0.67-16.742-0.021-18.354l24.62,1.801
			c0.744,0.053,1.357,0.726,1.368,1.5l0.207,15.152C117.1914,103.4372,117.0614,103.7682,116.8224,104.0092z M118.0114,100.1052
			c0,0.271-0.086,0.525-0.218,0.749l-0.18-12.942c-0.013-1.096-0.893-2.049-1.958-2.119l-0.558-0.043l-0.097-2.121l1.642-0.064
			h0.058c0.733,0,1.311,0.578,1.311,1.316L118.0114,100.1052L118.0114,100.1052z"/>
		<path class="st2" d="M104.2564,106.7632c-9.474,0-17.147,0.824-17.147,1.838c0,1.016,7.675,1.838,17.147,1.838
			c9.471,0,17.146-0.822,17.146-1.838C121.4044,107.5872,113.7274,106.7632,104.2564,106.7632"/>
	</g>
	<g class="st1">
		<g>
			<g>
				<g>
					<path class="st4" d="M230.5164,101.7492h-0.703v-0.671h3.238c1.191,0,2.059,0.728,2.059,1.918c0,0.834-0.424,1.388-0.975,1.655
						v0.021c0.779,0.221,1.277,0.967,1.277,1.888c0,1.354-0.996,2.136-2.273,2.136h-1.961c-0.467,0-0.662-0.193-0.662-0.66V101.7492
						z M233.0424,104.3822c0.77,0,1.289-0.541,1.289-1.332c0-0.781-0.498-1.301-1.303-1.301h-1.756v2.633H233.0424z
						 M231.5144,108.0222h1.625c0.92,0,1.482-0.573,1.482-1.485c0-0.908-0.605-1.504-1.494-1.504h-1.854v2.752
						C231.2744,107.9452,231.3614,108.0222,231.5144,108.0222z"/>
					<path class="st4" d="M239.7134,105.3352h0.305v-0.065c0-1.138-0.412-1.538-1.41-1.538c-0.27,0-1.061,0.076-1.061,0.477v0.35
						h-0.705v-0.521c0-0.76,1.303-0.922,1.775-0.922c1.725,0,2.137,0.922,2.137,2.092v2.61c0,0.161,0.088,0.237,0.236,0.237h0.455
						v0.641h-0.746c-0.469,0-0.648-0.206-0.648-0.65c0-0.238,0.01-0.4,0.01-0.4h-0.021c0.012,0-0.445,1.184-1.812,1.184
						c-0.908,0-1.852-0.531-1.852-1.615C236.3784,105.4002,238.7724,105.3352,239.7134,105.3352z M238.3504,108.1952
						c1.039,0,1.668-1.082,1.668-2.025v-0.25h-0.313c-0.854,0-2.568,0.022-2.568,1.246
						C237.1354,107.6762,237.5354,108.1952,238.3504,108.1952z"/>
					<path class="st4" d="M242.6174,104.1242c0-0.153-0.088-0.239-0.236-0.239h-0.455v-0.64h0.758c0.455,0,0.662,0.194,0.662,0.606
						v0.248c0,0.217-0.021,0.392-0.021,0.392h0.021c0.192-0.5,0.887-1.378,2.166-1.378c1.354,0,1.83,0.771,1.83,2.113v2.589
						c0,0.161,0.086,0.237,0.237,0.237h0.454v0.641h-0.769c-0.469,0-0.661-0.194-0.661-0.659v-2.613
						c0-0.854-0.129-1.612-1.183-1.612c-0.933,0-1.731,0.639-1.981,1.537c-0.063,0.229-0.086,0.479-0.086,0.737v2.61h-0.736
						L242.6174,104.1242L242.6174,104.1242z"/>
					<path class="st4" d="M251.5654,103.1152c0.617,0,1.939,0.26,1.939,1.158v0.488h-0.693v-0.314c0-0.455-0.791-0.672-1.246-0.672
						c-1.17,0-2.113,0.877-2.113,2.2c0,1.343,0.986,2.177,2.138,2.177c1.115,0,1.752-0.768,1.752-0.768l0.351,0.552
						c0,0-0.734,0.888-2.138,0.888c-1.623,0-2.856-1.158-2.856-2.849C248.6954,104.3062,249.9404,103.1152,251.5654,103.1152z"/>
					<path class="st4" d="M257.2854,103.1152c1.596,0,2.883,1.213,2.883,2.827c0,1.647-1.287,2.882-2.871,2.882
						c-1.593,0-2.881-1.234-2.881-2.882C254.4154,104.3282,255.7034,103.1152,257.2854,103.1152z M257.2964,108.1642
						c1.16,0,2.111-0.955,2.111-2.222c0-1.233-0.951-2.155-2.111-2.155c-1.17,0-2.121,0.922-2.121,2.155
						C255.1744,107.2082,256.1264,108.1642,257.2964,108.1642z"/>
				</g>
				<g>
					<path class="st5" d="M261.7704,102.1832h-0.705v-1.203h3.324c1.387,0,2.383,0.715,2.383,1.982c0,0.854-0.465,1.406-0.932,1.645
						v0.021c0.834,0.25,1.232,1.029,1.232,1.809c0,1.537-1.223,2.23-2.65,2.23h-1.918c-0.508,0-0.734-0.217-0.734-0.735V102.1832z
						 M264.4014,104.1212c0.595,0,0.931-0.433,0.931-0.984c0-0.553-0.324-0.951-0.953-0.951h-1.188v1.938h1.212L264.4014,104.1212
						L264.4014,104.1212z M263.4264,107.4662h1.104c0.693,0,1.082-0.465,1.082-1.116c0-0.638-0.397-1.104-1.082-1.104h-1.342v1.982
						C263.1884,107.3782,263.2744,107.4662,263.4264,107.4662z"/>
					<path class="st5" d="M267.8874,107.4662h0.465c0.152,0,0.238-0.088,0.238-0.238v-6.248h1.275l2.914,4.255
						c0.305,0.446,0.641,1.084,0.641,1.084h0.021c0,0-0.076-0.638-0.076-1.084v-3.519c0-0.51,0.219-0.736,0.736-0.736h1.387v1.203
						h-0.465c-0.15,0-0.24,0.086-0.24,0.236v6.248h-1.266l-2.925-4.244c-0.305-0.436-0.639-1.082-0.639-1.082h-0.021
						c0,0,0.073,0.639,0.073,1.082v3.509c0,0.521-0.215,0.735-0.733,0.735h-1.388v-1.201L267.8874,107.4662L267.8874,107.4662z"/>
					<path class="st5" d="M276.2684,107.4662h0.771v-5.283h-0.771v-1.203h2.879v1.203h-0.768v5.283h0.768v1.201h-2.879V107.4662z"/>
				</g>
			</g>
			<g>
				<path class="st6" d="M223.0294,104.9782c1.139-1.738,1.504-3.957,0.813-6.086c-0.977-2.998-3.752-4.908-6.743-4.914
					c1.309,0.008,2.204,2.217,2.684,5.232c0.16,1.004,0.274,2.1,0.344,3.23C221.3384,103.0162,222.3314,103.9062,223.0294,104.9782z
					"/>
				<path class="st7" d="M208.3884,93.9782c-1.804,0-3.279,1.477-3.279,3.279v7.721l11.99-10.998L208.3884,93.9782z"/>
				<path class="st8" d="M219.2794,102.1072c0.291,0.096,0.573,0.207,0.848,0.336c-0.068-1.133-0.184-2.229-0.344-3.232
					c-0.479-3.016-1.375-5.224-2.684-5.229l-11.99,10.996C205.1094,104.9782,214.5744,100.5802,219.2794,102.1072z"/>
				<path class="st6" d="M223.8424,111.0642c0.689-2.128,0.324-4.347-0.813-6.086c-0.697,1.07-1.689,1.961-2.902,2.535
					c-0.271,4.529-1.281,8.453-3.025,8.465C220.0884,115.9702,222.8674,114.0622,223.8424,111.0642z"/>
				<path class="st7" d="M205.1094,112.6992c0,1.805,1.477,3.279,3.279,3.279h8.711l-11.99-11V112.6992z"/>
				<path class="st8" d="M220.1264,107.5132c-0.272,0.127-0.557,0.24-0.848,0.336c-4.704,1.527-14.169-2.871-14.169-2.871l11.99,11
					C218.8444,115.9662,219.8534,112.0422,220.1264,107.5132z"/>
				<path class="st8" d="M220.1264,102.4432c0.049,0.832,0.072,1.684,0.072,2.535s-0.023,1.702-0.072,2.535
					c1.213-0.574,2.205-1.465,2.902-2.535C222.3314,103.9062,221.3384,103.0162,220.1264,102.4432z"/>
				<path class="st9" d="M219.2794,107.8492c0.291-0.096,0.573-0.209,0.848-0.336c0.049-0.833,0.072-1.686,0.072-2.535
					c0-0.852-0.023-1.703-0.072-2.535c-0.272-0.129-0.557-0.24-0.848-0.336c-4.705-1.527-14.17,2.871-14.17,2.871
					S214.5744,109.3762,219.2794,107.8492z"/>
			</g>
		</g>
	</g>
	<g class="st1">
		<g>
			<path class="st10" d="M188.2484,100.9802c-6.398,0-11.604-5.115-11.604-11.4c0-6.287,5.203-11.399,11.604-11.399
				c6.4,0,11.604,5.112,11.604,11.399C199.8524,95.8652,194.6484,100.9802,188.2484,100.9802z"/>
			<path class="st11" d="M188.2484,98.1082c-4.785,0-8.68-3.827-8.68-8.528s3.895-8.526,8.68-8.526c4.788,0,8.68,3.825,8.68,8.526
				C196.9274,94.2812,193.0364,98.1082,188.2484,98.1082z"/>
			<path class="st12" d="M188.2484,81.2012c4.71,0,8.53,3.752,8.53,8.379c0,4.631-3.817,8.383-8.53,8.383
				c-4.709,0-8.527-3.752-8.527-8.383C179.7204,84.9532,183.5384,81.2012,188.2484,81.2012 M188.2484,78.7872
				c-6.06,0-10.988,4.842-10.988,10.793c0,5.953,4.93,10.797,10.988,10.797c6.058,0,10.988-4.844,10.988-10.797
				C199.2374,83.6282,194.3044,78.7872,188.2484,78.7872L188.2484,78.7872z"/>
		</g>
	</g>
	<g class="st1">
		<g>
			<g>
				<defs>
					<rect id="SVGID_1_" x="-2.5386" y="73.9712" width="72.334" height="18.014"/>
				</defs>
				<clipPath id="SVGID_2_">
					<use xlink:href="#SVGID_1_"  style="overflow:visible;"/>
				</clipPath>
				<path class="st13" d="M13.8344,84.8172c0-0.658-0.083-1.102-0.418-1.514c-0.326-0.396-0.82-0.598-1.504-0.598
					c-0.602,0-0.992,0.092-1.465,0.502c-0.331,0.289-0.671,0.854-0.671,1.608L13.8344,84.8172L13.8344,84.8172z M15.1524,88.7502
					c0.172-0.142,0.469-0.396,0.604-0.521c0.942,1.167,0.252,2.507-0.428,2.976c-0.653,0.446-1.708,0.778-2.859,0.778
					c-0.709,0-1.242-0.092-1.927-0.276c-0.688-0.186-1.297-0.51-1.832-0.971c-0.535-0.462-0.968-1.083-1.3-1.859
					c-0.332-0.777-0.498-1.76-0.498-2.945c0-0.971,0.146-1.807,0.44-2.507s0.687-1.282,1.177-1.745
					c0.489-0.462,1.044-0.801,1.662-1.016c0.617-0.217,1.25-0.324,1.898-0.324c0.844,0,1.292,0.119,1.881,0.389
					c0.586,0.271,1.478,1.074,1.91,1.859c0.46,0.834,0.722,2.35,0.273,4.274l-6.745-0.006c0.04,0.983,0.638,1.791,1.218,2.213
					C11.5334,89.7302,13.7684,89.8772,15.1524,88.7502"/>
			</g>
		</g>
		<g>
			<g>
				<defs>
					<rect id="SVGID_3_" x="-2.5386" y="73.9712" width="72.334" height="18.014"/>
				</defs>
				<clipPath id="SVGID_4_">
					<use xlink:href="#SVGID_3_"  style="overflow:visible;"/>
				</clipPath>
				<path class="st14" d="M20.7064,91.8002c-0.077,0.03-0.221,0.053-0.433,0.067c-0.211,0.018-0.444,0.024-0.7,0.024
					c-0.257,0-0.501-0.026-0.734-0.082c-0.235-0.056-0.441-0.153-0.622-0.3s-0.326-0.344-0.43-0.59
					c-0.105-0.246-0.158-0.563-0.158-0.946v-14.601c0.031-0.015,0.151-0.033,0.362-0.058c0.21-0.022,0.436-0.032,0.677-0.032
					c0.242,0,0.482,0.021,0.725,0.066c0.24,0.049,0.459,0.137,0.655,0.268s0.354,0.315,0.476,0.553
					c0.121,0.24,0.183,0.553,0.183,0.938v14.693H20.7064z"/>
			</g>
		</g>
		<g>
			<g>
				<defs>
					<rect id="SVGID_5_" x="-2.5386" y="73.9712" width="72.334" height="18.014"/>
				</defs>
				<clipPath id="SVGID_6_">
					<use xlink:href="#SVGID_5_"  style="overflow:visible;"/>
				</clipPath>
				<path class="st15" d="M-2.5386,86.0112c0,1.233,0.181,2.231,0.543,2.993c0.361,0.763,0.773,1.328,1.288,1.793
					c1.146,1.041,3.083,1.341,4.482,1.117c1.645-0.261,2.438-1.028,2.573-1.823c0.129-0.757-0.228-1.528-0.617-2.048
					c0,0-0.729,0.836-2.04,1.033c-0.924,0.139-2.241,0.207-3.112-1.134c0,0-1.111-1.874,0-3.747c0.69-1.167,2.188-1.273,3.113-1.134
					c1.313,0.197,2.04,1.033,2.04,1.033c0.39-0.521,0.747-1.29,0.617-2.048c-0.137-0.797-0.93-1.563-2.573-1.824
					c-1.399-0.221-3.336,0.078-4.482,1.118c-0.516,0.466-0.927,1.03-1.289,1.794c-0.363,0.762-0.543,1.759-0.543,2.99"/>
			</g>
		</g>
		<g>
			<g>
				<defs>
					<rect id="SVGID_7_" x="-2.5386" y="73.9712" width="72.334" height="18.014"/>
				</defs>
				<clipPath id="SVGID_8_">
					<use xlink:href="#SVGID_7_"  style="overflow:visible;"/>
				</clipPath>
				<path class="st16" d="M43.4674,91.7762h-2.057c-0.376,0-0.613-0.104-0.712-0.313c-0.097-0.209-0.146-0.514-0.146-0.912
					c-0.256,0.354-0.646,0.681-1.175,0.98c-0.525,0.303-1.243,0.451-2.146,0.451c-1.071,0-1.86-0.215-2.376-0.646
					c-0.512-0.432-0.844-1.002-0.995-1.709c-0.074-0.354-0.124-0.74-0.147-1.155c-0.021-0.416-0.033-0.824-0.033-1.224v-6.4
					c0.031-0.018,0.15-0.034,0.361-0.059c0.211-0.023,0.438-0.035,0.678-0.035c0.242,0,0.484,0.024,0.726,0.07
					c0.238,0.045,0.458,0.135,0.655,0.264c0.195,0.134,0.354,0.318,0.475,0.557c0.121,0.24,0.181,0.551,0.181,0.938v4.527
					c0,0.354,0.013,0.674,0.034,0.958c0.021,0.286,0.084,0.532,0.179,0.739c0.1,0.209,0.257,0.369,0.476,0.484
					c0.22,0.117,0.525,0.175,0.916,0.175c0.557,0,1.038-0.119,1.436-0.359c0.399-0.237,0.601-0.534,0.601-0.889v-7.37
					c0.029-0.018,0.149-0.034,0.362-0.059c0.21-0.023,0.438-0.035,0.677-0.035c0.242,0,0.484,0.029,0.726,0.082
					c0.242,0.055,0.459,0.152,0.655,0.301c0.195,0.146,0.354,0.346,0.475,0.6c0.121,0.256,0.18,0.575,0.18,0.959v9.08
					C43.4734,91.7762,43.4674,91.7762,43.4674,91.7762z"/>
			</g>
		</g>
		<g>
			<g>
				<defs>
					<rect id="SVGID_9_" x="-2.5386" y="73.9712" width="72.334" height="18.014"/>
				</defs>
				<clipPath id="SVGID_10_">
					<use xlink:href="#SVGID_9_"  style="overflow:visible;"/>
				</clipPath>
				<path class="st17" d="M49.8834,84.2002l1.221-2.033c0.285-0.479,0.588-0.836,0.903-1.076c0.318-0.237,0.761-0.358,1.334-0.358
					c0.304,0,0.583,0.04,0.848,0.117c0.266,0.077,0.517,0.17,0.76,0.276l-3.438,5.268l3.3,5.314
					c-0.452,0.186-0.929,0.276-1.423,0.276c-0.527,0-0.973-0.081-1.333-0.241c-0.362-0.164-0.694-0.488-0.996-0.981l-1.355-2.173
					l-1.857,3.164h-3.23l3.436-5.475l-3.166-5.222c0.245-0.077,0.531-0.155,0.872-0.231c0.338-0.076,0.666-0.115,0.981-0.115
					c0.513,0,0.918,0.115,1.208,0.348c0.295,0.23,0.548,0.547,0.761,0.947L49.8834,84.2002z"/>
			</g>
		</g>
		<g>
			<g>
				<defs>
					<rect id="SVGID_11_" x="-2.5386" y="73.9712" width="72.334" height="18.014"/>
				</defs>
				<clipPath id="SVGID_12_">
					<use xlink:href="#SVGID_11_"  style="overflow:visible;"/>
				</clipPath>
				<path class="st18" d="M27.4734,89.4032c-1.399,0-2.534-1.408-2.534-3.148c0-1.736,1.135-3.146,2.534-3.146
					s2.534,1.409,2.534,3.146C30.0074,87.9952,28.8724,89.4032,27.4734,89.4032 M32.0014,83.3342
					c-0.249-0.7-0.674-1.314-1.088-1.746c-0.413-0.432-0.89-0.735-1.424-0.912c-0.536-0.178-1.096-0.268-1.685-0.268
					c-0.695,0-1.259,0.111-1.697,0.336c-0.437,0.224-0.768,0.449-0.993,0.682v-4.297c0-0.385-0.063-0.696-0.183-0.937
					c-0.121-0.239-0.274-0.428-0.463-0.565c-0.188-0.139-0.407-0.229-0.657-0.278c-0.247-0.046-0.493-0.067-0.733-0.067
					c-0.241,0-0.468,0.012-0.679,0.033c-0.212,0.023-0.331,0.043-0.362,0.059v16.447c0,0,2.018,0.231,2.49-0.249
					c0.353-0.354,0.313-0.788,0.313-0.788c0.031,0.047,0.106,0.131,0.226,0.254c0.14,0.123,0.322,0.254,0.557,0.394
					c0.231,0.139,0.526,0.266,0.881,0.381c0.354,0.116,0.771,0.174,1.254,0.174c0.542,0,1.082-0.092,1.617-0.276
					c0.536-0.186,1.019-0.506,1.446-0.959c0.431-0.455,0.908-1.025,1.179-1.813c0.271-0.784,0.494-1.798,0.494-3
					C32.4954,84.8902,32.2514,84.0362,32.0014,83.3342"/>
			</g>
		</g>
		<g>
			<g>
				<defs>
					<rect id="SVGID_13_" x="-2.5386" y="73.9712" width="72.334" height="18.014"/>
				</defs>
				<clipPath id="SVGID_14_">
					<use xlink:href="#SVGID_13_"  style="overflow:visible;"/>
				</clipPath>
				<path class="st19" d="M64.0364,86.3922h-5.953c-0.477,0-0.864-0.396-0.864-0.878v-10.664c0-0.482,0.389-0.879,0.864-0.879h5.953
					c0.472,0,0.857,0.396,0.857,0.879v10.664C64.8934,85.9972,64.5084,86.3922,64.0364,86.3922 M64.0784,85.2022v-10.039
					c0-0.199-0.159-0.362-0.354-0.362h-5.334c-0.193,0-0.353,0.163-0.353,0.362v10.039c0,0.199,0.159,0.361,0.353,0.361h5.334
					C63.9204,85.5632,64.0784,85.4012,64.0784,85.2022"/>
			</g>
		</g>
		<g>
			<g>
				<defs>
					<rect id="SVGID_15_" x="-2.5386" y="73.9712" width="72.334" height="18.014"/>
				</defs>
				<clipPath id="SVGID_16_">
					<use xlink:href="#SVGID_15_"  style="overflow:visible;"/>
				</clipPath>
				<path class="st20" d="M66.6704,77.1892h-1.556v-0.83h3.125l-0.466,0.659c-0.944,1.336-1.7,2.554-2.216,3.895
					c0.623-0.976,1.44-1.976,2.476-3.02h-0.632l0.478-0.717h1.917l-0.656,0.621c-2.393,2.273-3.725,4.244-4.245,6.307v-3.697
					C65.3004,79.4012,65.8644,78.3842,66.6704,77.1892"/>
			</g>
		</g>
		<g>
			<g>
				<defs>
					<rect id="SVGID_17_" x="-2.5386" y="73.9712" width="72.334" height="18.014"/>
				</defs>
				<clipPath id="SVGID_18_">
					<use xlink:href="#SVGID_17_"  style="overflow:visible;"/>
				</clipPath>
				<path class="st21" d="M60.2764,76.0512h1.563c0.125,0,0.225-0.104,0.225-0.23s-0.1-0.229-0.225-0.229h-1.563
					c-0.124,0-0.225,0.104-0.225,0.229S60.1524,76.0512,60.2764,76.0512"/>
			</g>
		</g>
		<g>
			<g>
				<defs>
					<rect id="SVGID_19_" x="-2.5386" y="73.9712" width="72.334" height="18.014"/>
				</defs>
				<clipPath id="SVGID_20_">
					<use xlink:href="#SVGID_19_"  style="overflow:visible;"/>
				</clipPath>
				<path class="st22" d="M60.6454,84.5732c0,0.258,0.204,0.465,0.456,0.465c0.25,0,0.455-0.207,0.455-0.465
					c0-0.256-0.204-0.468-0.455-0.468C60.8494,84.1052,60.6454,84.3172,60.6454,84.5732"/>
			</g>
		</g>
	</g>
	<g class="st1">
		<g>
			<g>
				<defs>
					<rect id="SVGID_21_" x="-2.8906" y="-1.0218" width="219.99" height="59.05"/>
				</defs>
				<clipPath id="SVGID_22_">
					<use xlink:href="#SVGID_21_"  style="overflow:visible;"/>
				</clipPath>
				<path class="st23" d="M46.9044,34.5312c0-2.158-0.252-3.611-1.271-4.962c-0.992-1.3-2.495-1.959-4.574-1.959
					c-1.83,0-3.018,0.301-4.455,1.646c-1.007,0.948-2.041,2.801-2.041,5.272h12.34v0.003H46.9044z M50.9144,47.4262
					c0.522-0.464,1.425-1.296,1.838-1.706c2.866,3.825,0.766,8.218-1.301,9.754c-1.987,1.463-5.195,2.551-8.696,2.551
					c-2.156,0-3.778-0.3-5.86-0.905c-2.091-0.608-3.944-1.671-5.572-3.182c-1.627-1.515-2.943-3.55-3.953-6.095
					c-1.01-2.548-1.515-5.769-1.515-9.655c0-3.182,0.445-5.922,1.339-8.218s2.088-4.203,3.579-5.72
					c1.488-1.515,3.175-2.625,5.055-3.33c1.877-0.711,3.802-1.063,5.774-1.063c2.566,0,3.929,0.391,5.72,1.274
					c1.782,0.891,4.494,3.521,5.81,6.096c1.398,2.734,2.195,7.702,0.832,14.012l-20.514-0.02c0.122,3.224,1.939,5.871,3.704,7.254
					C39.9074,50.6372,46.7054,51.1202,50.9144,47.4262"/>
			</g>
		</g>
		<g>
			<g>
				<defs>
					<rect id="SVGID_23_" x="-2.8906" y="-1.0218" width="219.99" height="59.05"/>
				</defs>
				<clipPath id="SVGID_24_">
					<use xlink:href="#SVGID_23_"  style="overflow:visible;"/>
				</clipPath>
				<path class="st24" d="M67.8054,57.4232c-0.235,0.099-0.671,0.173-1.316,0.221c-0.642,0.058-1.352,0.081-2.129,0.081
					c-0.781,0-1.524-0.087-2.233-0.27c-0.716-0.183-1.343-0.502-1.892-0.982c-0.549-0.484-0.992-1.127-1.307-1.934
					c-0.321-0.806-0.481-1.843-0.481-3.102V3.5682c0.095-0.048,0.46-0.109,1.102-0.188c0.639-0.074,1.325-0.106,2.058-0.106
					c0.737,0,1.467,0.067,2.204,0.218c0.73,0.16,1.396,0.448,1.993,0.877s1.078,1.034,1.446,1.812
					c0.369,0.788,0.556,1.812,0.556,3.077v48.165H67.8054z"/>
			</g>
		</g>
		<g>
			<g>
				<defs>
					<rect id="SVGID_25_" x="-2.8906" y="-1.0218" width="219.99" height="59.05"/>
				</defs>
				<clipPath id="SVGID_26_">
					<use xlink:href="#SVGID_25_"  style="overflow:visible;"/>
				</clipPath>
				<path class="st25" d="M-2.8906,38.4462c0,4.043,0.549,7.315,1.651,9.812c1.099,2.5,2.352,4.353,3.917,5.877
					c3.487,3.413,9.376,4.396,13.632,3.663c5.001-0.854,7.413-3.371,7.826-5.977c0.392-2.481-0.692-5.01-1.877-6.713
					c0,0-2.216,2.741-6.205,3.387c-2.81,0.455-6.816,0.678-9.465-3.717c0,0-3.38-6.143,0-12.284c2.1-3.825,6.656-4.174,9.468-3.716
					c3.992,0.646,6.205,3.387,6.205,3.387c1.185-1.706,2.272-4.229,1.877-6.713c-0.416-2.612-2.828-5.122-7.826-5.979
					c-4.255-0.724-10.145,0.255-13.631,3.665c-1.568,1.527-2.818,3.377-3.92,5.881c-1.106,2.496-1.652,5.765-1.652,9.802"/>
			</g>
		</g>
		<g>
			<g>
				<defs>
					<rect id="SVGID_27_" x="-2.8906" y="-1.0218" width="219.99" height="59.05"/>
				</defs>
				<clipPath id="SVGID_28_">
					<use xlink:href="#SVGID_27_"  style="overflow:visible;"/>
				</clipPath>
				<path class="st26" d="M137.0274,57.3432h-6.255c-1.143,0-1.865-0.339-2.165-1.024c-0.294-0.685-0.445-1.684-0.445-2.99
					c-0.778,1.158-1.966,2.231-3.573,3.214c-1.598,0.993-3.781,1.479-6.528,1.479c-3.258,0-5.658-0.704-7.226-2.119
					c-1.557-1.416-2.566-3.285-3.026-5.603c-0.226-1.162-0.377-2.426-0.449-3.787c-0.065-1.364-0.101-2.702-0.101-4.011v-20.981
					c0.095-0.058,0.458-0.112,1.099-0.192c0.642-0.077,1.331-0.115,2.061-0.115c0.737,0,1.473,0.08,2.207,0.23
					c0.725,0.147,1.393,0.442,1.993,0.864c0.594,0.438,1.075,1.043,1.443,1.825c0.368,0.787,0.549,1.805,0.549,3.073v14.842
					c0,1.159,0.039,2.208,0.104,3.14c0.065,0.938,0.255,1.745,0.543,2.424c0.303,0.685,0.781,1.21,1.447,1.587
					c0.668,0.384,1.598,0.573,2.786,0.573c1.693,0,3.157-0.391,4.366-1.179c1.215-0.777,1.826-1.75,1.826-2.913v-24.16
					c0.089-0.058,0.455-0.112,1.102-0.192c0.639-0.077,1.331-0.115,2.058-0.115c0.737,0,1.473,0.096,2.207,0.269
					c0.736,0.18,1.396,0.5,1.993,0.986c0.594,0.48,1.075,1.133,1.443,1.965c0.369,0.839,0.547,1.886,0.547,3.144v29.765h-0.006
					V57.3432z"/>
			</g>
		</g>
		<g>
			<g>
				<defs>
					<rect id="SVGID_29_" x="-2.8906" y="-1.0218" width="219.99" height="59.05"/>
				</defs>
				<clipPath id="SVGID_30_">
					<use xlink:href="#SVGID_29_"  style="overflow:visible;"/>
				</clipPath>
				<path class="st27" d="M156.5404,32.5082l3.713-6.665c0.867-1.572,1.788-2.74,2.747-3.528c0.968-0.778,2.313-1.175,4.057-1.175
					c0.924,0,1.773,0.131,2.578,0.384c0.808,0.253,1.571,0.557,2.311,0.906l-10.455,17.268l10.036,17.421
					c-1.375,0.608-2.824,0.905-4.327,0.905c-1.604,0-2.958-0.265-4.054-0.791c-1.102-0.538-2.112-1.6-3.029-3.217l-4.123-7.123
					l-5.649,10.372h-9.825l10.448-17.946l-9.629-17.117c0.746-0.253,1.616-0.509,2.652-0.759c1.028-0.25,2.026-0.378,2.985-0.378
					c1.56,0,2.792,0.378,3.674,1.14c0.897,0.755,1.667,1.792,2.314,3.105L156.5404,32.5082z"/>
			</g>
		</g>
		<g>
			<g>
				<defs>
					<rect id="SVGID_31_" x="-2.8906" y="-1.0218" width="219.99" height="59.05"/>
				</defs>
				<clipPath id="SVGID_32_">
					<use xlink:href="#SVGID_31_"  style="overflow:visible;"/>
				</clipPath>
				<path class="st28" d="M88.3844,49.5642c-4.256,0-7.707-4.616-7.707-10.321c0-5.692,3.451-10.311,7.707-10.311
					c4.256,0,7.708,4.619,7.708,10.311C96.0914,44.9482,92.6404,49.5642,88.3844,49.5642 M102.1564,29.6712
					c-0.757-2.295-2.049-4.309-3.309-5.724c-1.256-1.415-2.706-2.411-4.33-2.99c-1.631-0.583-3.333-0.877-5.124-0.877
					c-2.115,0-3.828,0.365-5.162,1.102c-1.328,0.733-2.334,1.473-3.021,2.234V9.3312c0-1.261-0.19-2.283-0.556-3.07
					c-0.368-0.784-0.834-1.402-1.408-1.854c-0.57-0.455-1.238-0.752-1.999-0.913c-0.751-0.15-1.5-0.221-2.23-0.221
					c-0.733,0-1.422,0.039-2.064,0.109c-0.645,0.076-1.007,0.141-1.102,0.191v53.916c0,0,6.136,0.759,7.574-0.816
					c1.072-1.159,0.954-2.583,0.954-2.583c0.095,0.154,0.324,0.429,0.686,0.833c0.424,0.403,0.98,0.833,1.693,1.29
					c0.704,0.455,1.601,0.871,2.679,1.249c1.078,0.381,2.343,0.57,3.813,0.57c1.648,0,3.291-0.301,4.918-0.906
					c1.631-0.608,3.098-1.659,4.399-3.144c1.31-1.492,2.762-3.361,3.584-5.941c0.826-2.571,1.503-5.894,1.503-9.834
					C103.6594,34.7712,102.9164,31.9702,102.1564,29.6712"/>
			</g>
		</g>
		<g>
			<g>
				<defs>
					<rect id="SVGID_33_" x="-2.8906" y="-1.0218" width="219.99" height="59.05"/>
				</defs>
				<clipPath id="SVGID_34_">
					<use xlink:href="#SVGID_33_"  style="overflow:visible;"/>
				</clipPath>
				<path class="st29" d="M199.5854,39.6952h-18.106c-1.449,0-2.628-1.297-2.628-2.878V1.8592c0-1.581,1.182-2.881,2.628-2.881
					h18.105c1.435,0,2.607,1.3,2.607,2.881v34.958C202.1924,38.3982,201.0194,39.6952,199.5854,39.6952 M199.7124,35.7922V2.8842
					c0-0.653-0.484-1.188-1.078-1.188h-16.222c-0.588,0-1.072,0.535-1.072,1.188v32.909c0,0.653,0.484,1.185,1.072,1.185h16.222
					C199.2314,36.9772,199.7124,36.4452,199.7124,35.7922"/>
			</g>
		</g>
		<g>
			<g>
				<defs>
					<rect id="SVGID_35_" x="-2.8906" y="-1.0218" width="219.99" height="59.05"/>
				</defs>
				<clipPath id="SVGID_36_">
					<use xlink:href="#SVGID_35_"  style="overflow:visible;"/>
				</clipPath>
				<path class="st30" d="M207.5954,9.5262h-4.731v-2.721h9.504l-1.417,2.161c-2.872,4.379-5.17,8.372-6.738,12.767
					c1.895-3.198,4.38-6.476,7.528-9.898h-1.921l1.452-2.35h5.83l-1.996,2.036c-7.276,7.453-11.328,13.913-12.911,20.674v-12.12
					C203.4284,16.7772,205.1444,13.4442,207.5954,9.5262"/>
			</g>
		</g>
		<g>
			<g>
				<defs>
					<rect id="SVGID_37_" x="-2.8906" y="-1.0218" width="219.99" height="59.05"/>
				</defs>
				<clipPath id="SVGID_38_">
					<use xlink:href="#SVGID_37_"  style="overflow:visible;"/>
				</clipPath>
				<path class="st31" d="M188.1504,5.7962h4.755c0.38,0,0.683-0.342,0.683-0.755s-0.303-0.752-0.683-0.752h-4.755
					c-0.377,0-0.683,0.339-0.683,0.752S187.7734,5.7962,188.1504,5.7962"/>
			</g>
		</g>
		<g>
			<g>
				<defs>
					<rect id="SVGID_39_" x="-2.8906" y="-1.0218" width="219.99" height="59.05"/>
				</defs>
				<clipPath id="SVGID_40_">
					<use xlink:href="#SVGID_39_"  style="overflow:visible;"/>
				</clipPath>
				<path class="st32" d="M189.2734,33.7302c0,0.845,0.621,1.524,1.387,1.524c0.761,0,1.384-0.679,1.384-1.524
					c0-0.838-0.621-1.533-1.384-1.533C189.8934,32.1972,189.2734,32.8922,189.2734,33.7302"/>
			</g>
		</g>
	</g>
	<g class="st1">
		<path class="st33" d="M267.6584,85.5802h-40.365c-3.23,0-5.859-2.76-5.859-6.126V5.0402c0-3.366,2.636-6.133,5.859-6.133h40.365
			c3.197,0,5.813,2.767,5.813,6.133v74.414C273.4714,82.8202,270.8554,85.5802,267.6584,85.5802 M267.9424,77.2732V7.2212
			c0-1.391-1.079-2.528-2.403-2.528h-36.166c-1.311,0-2.391,1.137-2.391,2.528v70.052c0,1.391,1.08,2.521,2.391,2.521h36.166
			C266.8694,79.7932,267.9424,78.6642,267.9424,77.2732"/>
		<path class="st33" d="M244.3634,72.8852c0,1.798,1.384,3.243,3.092,3.243c1.695,0,3.086-1.445,3.086-3.243
			c0-1.786-1.384-3.265-3.086-3.265C245.7464,69.6212,244.3634,71.0992,244.3634,72.8852"/>
		<path class="st33" d="M242.1524,13.4212h10.601c0.848,0,1.522-0.729,1.522-1.607s-0.675-1.602-1.522-1.602h-10.601
			c-0.841,0-1.522,0.723-1.522,1.602S241.3114,13.4212,242.1524,13.4212"/>
		<path class="st3" d="M285.5084,21.0132h-10.548v-5.792h21.188l-3.158,4.6c-6.402,9.322-11.528,17.82-15.023,27.176
			c4.224-6.808,9.767-13.786,16.784-21.071h-4.283l3.237-5.002h12.998l-4.45,4.334c-16.222,15.864-25.254,29.616-28.782,44.008
			v-25.799C276.2194,36.4482,280.0454,29.3542,285.5084,21.0132"/>
	</g>
</g>
<g id="Layer_1_copy">
	<g>
		<path class="st2" d="M140.1014,97.9722c-8.281,0-14.992,0.719-14.992,1.605c0,0.889,6.711,1.605,14.992,1.605
			c8.279,0,14.992-0.721,14.992-1.605C155.0934,98.6912,148.3804,97.9722,140.1014,97.9722"/>
		<g>
			<path class="st34" d="M133.7834,98.5782c-1.389,0-2.646-0.813-3.208-2.078l-3.745-8.443c-0.379-0.854-0.4-1.805-0.063-2.678
				c0.337-0.875,0.992-1.563,1.843-1.941l20.646-9.158c0.448-0.195,0.923-0.299,1.411-0.299c1.388,0,2.646,0.814,3.208,2.078
				l3.744,8.443c0.782,1.766-0.016,3.836-1.778,4.619l-20.646,9.158C134.7464,98.4782,134.2714,98.5782,133.7834,98.5782z
				 M150.6654,74.9782c-0.349,0-0.688,0.072-1.006,0.213l-20.646,9.158c-0.607,0.27-1.074,0.762-1.315,1.389
				c-0.24,0.625-0.226,1.305,0.044,1.91l3.746,8.445c0.54,1.219,2.071,1.818,3.3,1.271l20.645-9.157
				c1.261-0.56,1.83-2.039,1.271-3.299l-3.745-8.445C152.5584,75.5602,151.6584,74.9782,150.6654,74.9782z"/>
		</g>
	</g>
	<g>
		<path class="st2" d="M180.1014,97.9712c-8.281,0-14.992,0.72-14.992,1.606c0,0.885,6.711,1.604,14.992,1.604
			c8.279,0,14.992-0.721,14.992-1.604C195.0934,98.6912,188.3804,97.9712,180.1014,97.9712"/>
		<g>
			<path class="st34" d="M173.7834,98.5782c-1.389,0-2.646-0.813-3.208-2.078l-3.745-8.443c-0.379-0.854-0.4-1.805-0.063-2.678
				c0.337-0.875,0.992-1.563,1.843-1.941l20.646-9.158c0.448-0.197,0.923-0.299,1.411-0.299c1.388,0,2.646,0.814,3.208,2.078
				l3.744,8.443c0.782,1.766-0.016,3.836-1.778,4.619l-20.646,9.158C174.7464,98.4772,174.2714,98.5782,173.7834,98.5782z
				 M190.6654,74.9782c-0.349,0-0.688,0.07-1.006,0.213l-20.646,9.158c-0.607,0.27-1.074,0.762-1.315,1.388
				c-0.24,0.625-0.226,1.306,0.044,1.911l3.746,8.445c0.54,1.219,2.071,1.816,3.3,1.271l20.645-9.159
				c1.261-0.559,1.83-2.039,1.271-3.299l-3.745-8.443C192.5584,75.5602,191.6584,74.9782,190.6654,74.9782z"/>
		</g>
	</g>
	<g>
		<path class="st2" d="M312.9068,112.9951c-0.51-1.559-2.68-2.377-5.622-2.377c-0.479,0-0.988,0.034-1.507,0.081
			c0.021,0.031,0.033,0.065,0.05,0.099c1.348,0.182,2.674,0.613,3.979,0.949c1.397,0.361,3.008,2.055,1.194,3.209
			c-1.582,1.008-4.515,0.025-6.168-0.402c-0.834-0.215-1.578-0.396-2.252-0.674c-0.022,0-0.043,0.006-0.065,0.006
			c-0.039,0-0.068-0.014-0.104-0.016c-0.052,0.005-0.099,0.016-0.15,0.016c-0.868,0-1.354-0.594-1.461-1.256
			c-0.146-0.158-0.282-0.33-0.418-0.525c-0.055-0.08-0.094-0.161-0.131-0.242c-0.203,0.066-0.401,0.141-0.601,0.212
			c0.183,0.399,0.207,0.894-0.028,1.396c-1.035,2.213-0.562,6.643-3.986,6.805c-1.401,0.068-2.586-0.604-3.073-1.932
			c-0.231-0.627-0.004-1.584,0.379-2.111c0.127-0.174,0.808-0.984,0.801-0.936c0.005-0.047,0.021-0.082,0.027-0.125
			c-2.19,1.688-3.343,3.539-2.853,5.035c0.51,1.559,2.68,2.377,5.623,2.377c2.041,0,4.45-0.395,6.938-1.209
			C309.5488,119.3821,313.7718,115.6321,312.9068,112.9951z"/>
		<path class="st34" d="M295.7888,82.4951l-0.024,0.135l-0.392,2.178c-0.021,0.158-0.041,0.289-0.041,0.354
			c0.002,0.033,0.017,0.095,0.026,0.161c0.065,0.249,0.22,0.803,0.509,1.75L295.7888,82.4951z M296.4077,90.9581
			c-0.221,0-0.424-0.134-0.51-0.345c-0.101-0.246-0.158-0.408-0.176-0.452c-0.162-0.469-0.414-1.207-0.664-1.975
			c-0.455-1.463-0.677-2.266-0.771-2.616c-0.043-0.207-0.058-0.317-0.058-0.41c0-0.103,0.017-0.257,0.056-0.528l0.396-2.203
			c0.387-2.014,0.883-4.404,0.883-4.404c0.058-0.271,0.306-0.457,0.58-0.438c0.274,0.021,0.491,0.242,0.508,0.521l0.233,4.188
			l0.117,6.891l-0.002,0.076l-0.043,1.168c-0.011,0.26-0.199,0.479-0.455,0.521L296.4077,90.9581z M293.8008,119.6321
			c0.121,0.072,0.354,0.17,0.789,0.242c0.293,0.057,0.578,0.084,0.858,0.084h0.082l0.076-0.004h0.002
			c0.276,0,0.481-0.012,0.608-0.025c0.054-0.037,0.115-0.063,0.181-0.08c0.483-0.115,1.31-0.422,1.401-1.17
			c0.158-1.297,0.427-3.043,0.504-3.547l0.021-0.088l0.01-0.064c-0.002-0.156,0.045-0.309,0.138-0.438
			c0.104-0.144,0.256-0.252,0.461-0.324c0.101-0.852,0.207-3.459,0.303-5.791c0.146-3.535,0.298-7.191,0.513-8.439
			c0.032-0.191,0.168-0.354,0.353-0.421c0.106-0.041,0.221-0.045,0.327-0.021c0.097-0.006,0.191,0.021,0.279,0.068
			c0.172,0.096,0.278,0.277,0.282,0.475l0.035,3.705c0.015,2.702,0.031,6.401,0.099,8.204l0.012,0.363l0.037,0.071
			c0.035,0.091,0.086,0.16,0.127,0.217c0.041,0.058,0.082,0.115,0.113,0.199l0.028,0.097l0.015,0.06l0.004,0.021
			c0.03,0.17,0.028,0.29,0.024,0.372l0.453,0.117c1.805,0.523,3.403,0.897,4.769,1.119c0.209,0.037,0.373,0.063,0.489,0.074
			l0.063,0.006c0.435,0.061,0.843,0.104,1.218,0.129l0.057,0.004l0.216,0.014c0.334,0.02,0.623,0.023,0.871,0.023
			c0.778,0,1.063-0.076,1.135-0.1l0.091-0.056c0.063-0.03,0.247-0.185,0.422-0.468c0.047-0.066,0.065-0.095,0.086-0.121
			c0.043-0.068,0.065-0.111,0.088-0.152l0.029-0.059l0.049-0.119l0.014-0.043l0.011-0.055c0.041-0.216-0.011-0.373-0.058-0.471
			l-0.026-0.064c-0.108-0.319-0.394-0.596-0.845-0.819l-0.067-0.03l-0.063-0.027c-0.209-0.102-0.435-0.18-0.664-0.234
			c-0.662-0.182-1.479-0.329-2.412-0.443c-0.473-0.058-0.844-0.094-1.094-0.111l-0.039-0.004c-0.18-0.017-0.287-0.021-0.291-0.021
			c-0.241-0.016-0.444-0.184-0.504-0.419c-0.037-0.159-0.004-0.322,0.086-0.45v-0.021l-0.119-1.277
			c-0.352-3.741-1.176-12.503-1.176-16.646c0-0.086,0.021-0.17,0.06-0.244c0.002-0.006,0.317-0.674,0.438-2v-0.098
			c0.092-1.15,0.012-2.433-0.238-3.809c-0.997-5.469-1.475-6.672-1.493-6.721c-0.242-0.684-0.406-1.236-0.498-1.678
			c-0.013-0.047-0.015-0.098-0.013-0.146c0.017-0.242,0.009-0.676,0.004-0.822c-0.004-0.21,0.109-0.404,0.294-0.502
			c0.187-0.098,0.411-0.082,0.579,0.041l2.152,1.556c0.119,0.036,0.225,0.112,0.295,0.214l1.461,1.068
			c0.125,0.072,0.66,0.375,1.19,0.695l1.604,1.088c0.039,0,0.09-0.002,0.15-0.006h0.049c0.053-0.082,0.162-0.277,0.312-0.707
			l0.021-0.057l0.012-0.035c0.277-0.847,0.593-2.205,0.859-3.734c0.024-0.145,0.051-0.277,0.075-0.409l0.373-1.438
			c0.063-0.242,0.282-0.41,0.532-0.41h2.361l0.008-2.748c0-0.158,0.07-0.307,0.185-0.407c-0.114-0.104-0.185-0.254-0.185-0.409
			v-0.124c0-0.18,0.088-0.348,0.234-0.448l0.069-0.041l-0.112-0.076c-0.121-0.104-0.191-0.256-0.191-0.416v-2.75
			c-0.098-0.015-0.188-0.053-0.266-0.106c-0.089,0.062-0.197,0.099-0.313,0.099h-3.459l-0.01,3.158c0,0.219-0.129,0.415-0.328,0.503
			c-0.1,0.044-0.207,0.058-0.313,0.04c0.039,0.143,0.095,0.311,0.166,0.497l0.021,0.054c0.049,0.162,0.092,0.291,0.131,0.414
			c0.074,0.271,0.156,0.57,0.261,0.767c0.043,0.079,0.063,0.169,0.063,0.259v1.729l0.139,0.013c0.164,0,0.318,0.069,0.423,0.194
			c0.104,0.127,0.147,0.289,0.118,0.45c-0.079,0.455-0.178,0.985-0.271,1.468c-0.097,0.439-0.195,0.881-0.3,1.285l-0.024,0.07
			c-0.063,0.167-0.123,0.4-0.185,0.633l-0.063,0.239c-0.138,0.413-0.244,0.659-0.358,0.827c-0.07,0.101-0.175,0.176-0.291,0.211
			c-0.052,0.017-0.14,0.029-0.192,0.029c-0.5,0-1.537-0.693-1.783-0.905c-0.104-0.093-0.287-0.261-0.492-0.454
			c-0.317-0.3-0.854-0.803-1.026-0.912l-0.09-0.068l-0.771-0.738c-1.187-1.141-2.527-2.432-3.119-2.728
			c-0.108-0.054-0.222-0.112-0.336-0.172l-0.093-0.048l-0.676-0.375l-0.051-0.029l-0.166-0.102l-0.101-0.078
			c-0.754-0.48-1.692-1.207-1.646-2.141c0.004-0.099,0.035-0.191,0.09-0.272l0.009-0.044c0.028-0.166,0.131-0.311,0.278-0.391
			c0.147-0.082,0.326-0.09,0.479-0.022c0.367,0.157,0.709,0.237,1.017,0.237l0.092-0.002h0.063l0.039-0.006
			c1.521-0.193,3.834-3.037,4-7.055c0.026-0.589,0.009-1.178-0.058-1.756c-0.071-0.635-0.239-1.258-0.496-1.848
			c-0.104-0.24-0.024-0.521,0.189-0.672c0.172-0.117,0.289-0.256,0.354-0.414c0.229-0.549-0.078-1.33-0.408-1.916
			c-0.082,0.055-0.198,0.1-0.354,0.1c-0.276,0-0.594-0.139-1.088-0.365c-0.429-0.195-0.933-0.426-1.427-0.539
			c-1.063-0.246-1.791-0.248-2.092-0.229c-0.19,0.008-0.356-0.072-0.466-0.211c-0.415,0.527-0.885,0.803-1.139,0.924
			c-0.149,0.07-0.328,0.07-0.479-0.002c-0.097-0.049-0.175-0.121-0.229-0.211l-0.867,1.309c-0.116,0.178-0.321,0.271-0.537,0.24
			c-0.063-0.01-0.127-0.029-0.182-0.061l-0.119,0.436c-0.067,0.254-0.308,0.43-0.569,0.404l-0.404-0.029l0.386,0.561
			c0.086,0.123,0.117,0.275,0.086,0.424s-0.119,0.275-0.248,0.354l-0.101,0.063c0.076,0.042,0.144,0.1,0.192,0.172
			c0.091,0.132,0.119,0.295,0.08,0.451c-0.075,0.3-0.205,0.9-0.19,1.555c0.017,1.146,0.248,1.877,0.384,2.207
			c0.067,0.166,0.051,0.352-0.043,0.501c-0.119,0.19-0.244,0.495-0.162,0.854c0.084,0.362,0.396,0.793,1.021,0.901
			c0.161,0.027,0.305,0.127,0.385,0.271c0.632,1.123,1.474,2.105,2.367,2.765c0.144,0.104,0.228,0.272,0.224,0.451
			c0,0.121-0.011,0.307-0.05,0.505c-0.045,0.197-0.108,0.37-0.192,0.535l-0.028,0.049c-0.113,0.173-0.263,0.376-0.394,0.548
			l-0.037,0.043c-0.11,0.119-0.233,0.234-0.371,0.349l-0.176,0.142c-0.449,0.362-1.127,0.913-1.771,1.586l-0.021,0.021l-0.009,0.01
			l-0.114,0.119c-1.179,1.267-1.772,2.545-1.772,3.812c0,0.174-0.002,0.358-0.009,0.543c-0.086,1.004-0.121,1.882-0.121,1.892
			l-0.231,2.396l-0.192,1.418l-0.112,1.244c0.233,0.798,1.596,5.413,1.969,6.84c0.035,0.185,0.06,0.326,0.082,0.47l0.009,0.096
			l-0.025,1.195l-0.012,0.094l-0.14,0.709l-0.021,0.078c-0.17,0.479-0.299,0.899-0.299,1.616c-0.004,0.116-0.009,0.187-0.009,0.261
			v0.172v0.095c0.011,0.505,0.035,0.862,0.085,1.202l0.028,0.31c0.06,0.693,0.129,1.481,0.153,2.242c0,0.657-0.03,1.422-0.09,2.354
			c-0.019,0.24-0.037,0.485-0.06,0.754c-0.271,3.254-0.72,7.854-0.808,8.734c0.037,0.069,0.097,0.174,0.181,0.295l0.063,0.108
			c0.08,0.141,0.092,0.31,0.037,0.461l-0.035,0.073c-0.097,0.242-0.449,1.087-1.244,2.604l-0.19,0.338
			c-0.123,0.221-0.228,0.42-0.317,0.609l-0.138,0.25c-0.247,0.445-0.338,0.846-0.269,1.182c0.031,0.188,0.097,0.32,0.22,0.453
			c0.17,0.203,0.375,0.355,0.629,0.48l0.063,0.035h0.006v-0.009H293.8008z M295.4498,121.0571c-0.353,0-0.707-0.033-1.056-0.102
			c-0.485-0.082-0.875-0.209-1.172-0.391c-0.382-0.188-0.695-0.438-0.938-0.727c-0.259-0.277-0.421-0.605-0.478-0.99
			c-0.121-0.57,0.008-1.225,0.387-1.906l0.123-0.227c0.088-0.182,0.201-0.4,0.34-0.646l0.181-0.319
			c0.619-1.178,0.959-1.937,1.11-2.293c-0.144-0.229-0.213-0.41-0.221-0.434c-0.031-0.079-0.043-0.165-0.033-0.249
			c0.007-0.054,0.521-5.281,0.817-8.866c0.021-0.263,0.041-0.504,0.058-0.736c0.06-0.904,0.088-1.646,0.091-2.261
			c-0.025-0.713-0.091-1.452-0.152-2.166l-0.022-0.276c-0.053-0.356-0.082-0.762-0.09-1.272c-0.002-0.063-0.002-0.11-0.002-0.158
			l0.549-0.094l-0.549,0.004v-0.056c0-0.114,0.004-0.196,0.006-0.277c0-0.871,0.164-1.422,0.351-1.947l0.123-0.619l0.021-1.101
			c-0.019-0.114-0.039-0.231-0.062-0.353c-0.388-1.476-1.968-6.823-1.984-6.879c-0.021-0.072-0.026-0.148-0.018-0.226l0.071-0.551
			l0.056-0.783l0.192-1.433l0.228-2.342c0-0.006,0.034-0.884,0.123-1.875c0.002-0.144,0.006-0.317,0.006-0.483
			c0-1.554,0.694-3.086,2.063-4.558l0.121-0.125l0.058-0.062c0.668-0.701,1.381-1.276,1.853-1.656l0.17-0.139
			c0.09-0.074,0.174-0.151,0.248-0.229c0.104-0.138,0.219-0.295,0.311-0.434c0.039-0.077,0.068-0.154,0.087-0.236l0.006-0.025
			c-0.877-0.7-1.668-1.629-2.31-2.713c-0.824-0.236-1.455-0.873-1.642-1.68c-0.106-0.479-0.049-0.977,0.166-1.434
			c-0.176-0.514-0.354-1.286-0.37-2.356c-0.009-0.435,0.034-0.847,0.09-1.188c-0.152,0.002-0.228,0.006-0.229,0.004
			c-0.351,0-0.625-0.206-0.718-0.512c-0.096-0.31,0.031-0.65,0.313-0.822l0.595-0.369l-0.506-0.734
			c-0.158-0.227-0.171-0.529-0.031-0.768c0.135-0.238,0.406-0.391,0.683-0.361l0.733,0.053l0.267-0.973
			c0.08-0.305,0.362-0.525,0.687-0.529c0.176,0.002,0.34,0.064,0.467,0.168l0.789-1.189c0.133-0.201,0.358-0.322,0.603-0.322
			l0.134,0.014c0.239,0.045,0.436,0.205,0.528,0.424c0.067-0.072,0.14-0.154,0.206-0.248l0.302-0.633
			c0.132-0.273,0.453-0.443,0.754-0.402c0.31,0.041,0.558,0.279,0.608,0.596l0.05,0.291c0.44,0.014,1.09,0.074,1.905,0.262
			c0.604,0.139,1.166,0.396,1.617,0.602c0.065,0.031,0.142,0.064,0.215,0.098c0.07-0.158,0.193-0.289,0.361-0.365
			c0.305-0.137,0.659-0.047,0.86,0.207c0.172,0.217,1.636,2.143,0.991,3.676c-0.094,0.223-0.227,0.424-0.396,0.604
			c0.215,0.576,0.355,1.173,0.428,1.783c0.072,0.637,0.092,1.283,0.062,1.931c-0.179,4.361-2.692,7.728-4.873,8.082
			c-0.131,0.041-0.207,0.037-0.31,0.024c-0.188,0.011-0.381-0.002-0.578-0.032c0.179,0.182,0.461,0.409,0.904,0.688l0.092,0.072
			l0.748,0.42l-0.168,0.533l0.254-0.488c0.107,0.056,0.215,0.109,0.318,0.162c0.743,0.373,2.028,1.607,3.391,2.92l0.734,0.703
			c0.248,0.172,0.635,0.528,1.143,1.009c0.191,0.178,0.357,0.336,0.455,0.42c0.174,0.149,0.531,0.366,0.806,0.507
			c0.017-0.045,0.032-0.095,0.051-0.15l0.056-0.203c0.063-0.246,0.131-0.5,0.203-0.703c0.102-0.394,0.196-0.816,0.287-1.231
			c0.057-0.293,0.114-0.608,0.172-0.914c-0.357-0.187-0.603-0.559-0.603-0.987v-1.607c-0.125-0.273-0.209-0.582-0.276-0.835
			c-0.037-0.108-0.084-0.252-0.136-0.417c-0.485-1.264-0.272-1.648-0.192-1.791c0.09-0.163,0.229-0.281,0.397-0.34
			c0.063-0.028,0.133-0.047,0.207-0.053v-2.373c0-0.611,0.498-1.111,1.108-1.111h2.908v-0.211c0-0.088,0.014-0.178,0.045-0.266
			v-0.008c0-0.305,0.246-0.549,0.551-0.549h0.006c0.179-0.063,0.361-0.063,0.539,0.002c0.285,0.025,0.552,0.262,0.552,0.547v0.008
			c0.028,0.088,0.045,0.178,0.045,0.266v0.408c0.3,0.197,0.494,0.537,0.494,0.914v2.352c0.239,0.165,0.416,0.443,0.459,0.771
			c0.024,0.188,0.008,0.367-0.048,0.528c0.05,0.063,0.089,0.136,0.117,0.212c0.156,0.432-0.067,0.898-0.528,1.176v2.373
			c0,0.61-0.498,1.108-1.108,1.108h-1.938l-0.26,0.995c-0.017,0.088-0.041,0.217-0.063,0.354c-0.162,0.924-0.489,2.646-0.894,3.868
			l-0.012,0.042l-0.031,0.092c-0.142,0.404-0.276,0.711-0.42,0.93l-0.074,0.168c-0.088,0.199-0.284,0.326-0.502,0.326h-0.065
			c-0.075,0.021-0.2,0.03-0.312,0.02c-0.043,0.004-0.117,0.006-0.178,0.006c-0.185,0-0.371-0.016-0.525-0.127l-1.668-1.135
			c-0.569-0.342-1.168-0.68-1.17-0.68l-0.053-0.035l-1.615-1.178l-0.024-0.021l-0.024-0.02l-0.035-0.021l-1.283-0.93
			c0.086,0.324,0.207,0.707,0.359,1.139c0.008,0.016,0.512,1.236,1.549,6.916c0.263,1.434,0.351,2.777,0.26,3.998l0.003,0.098
			c-0.104,1.279-0.38,2.07-0.5,2.366c0.014,4.136,0.821,12.735,1.17,16.427l0.112,1.225c0.234,0.021,0.521,0.052,0.841,0.092
			l0.073,0.01c0.972,0.118,1.82,0.271,2.492,0.459c0.319,0.075,0.619,0.184,0.901,0.316c0.06,0.023,0.101,0.045,0.14,0.063
			c0.709,0.355,1.172,0.829,1.385,1.416c0.117,0.249,0.229,0.636,0.142,1.114c-0.015,0.08-0.021,0.127-0.037,0.179l-0.036,0.101
			c-0.019,0.056-0.048,0.134-0.084,0.211l-0.058,0.111c-0.033,0.063-0.074,0.135-0.117,0.201l-0.028,0.049l-0.09,0.127
			c-0.205,0.338-0.5,0.643-0.783,0.805c-0.207,0.156-0.647,0.301-1.772,0.301c-0.265,0-0.572-0.008-0.935-0.025l-0.222-0.012
			l-0.063-0.006c-0.397-0.027-0.834-0.072-1.289-0.137c-0.153-0.016-0.354-0.043-0.59-0.088c-1.397-0.227-3.041-0.607-4.873-1.144
			l-0.701-0.182c-0.188-0.05-0.334-0.192-0.389-0.378c-0.188-0.243-0.179-0.508-0.172-0.646v-0.104
			c-0.068-0.096-0.148-0.219-0.218-0.377l-0.026-0.047c-0.133,2.303-0.258,2.32-0.676,2.381l-0.056,0.008l-0.013,0.078l-0.021,0.082
			c-0.092,0.59-0.338,2.209-0.485,3.426c-0.119,0.961-0.84,1.693-1.992,2.039c-0.241,0.182-0.682,0.201-1.256,0.201l-0.076,0.002
			h-0.126v-0.002H295.4498z"/>
	</g>
	<g>
		<path class="st34" d="M346.8723,21.3925l-1.85,0.077l-0.065-1.446c-0.007-0.114-0.064-0.219-0.161-0.281
			c-0.097-0.063-0.217-0.076-0.322-0.036c-0.416,0.159-0.837,0.299-1.255,0.447l-0.545-3.773c-0.018-0.113-0.086-0.211-0.188-0.266
			c-0.103-0.053-0.224-0.053-0.323-0.004c-0.338,0.168-0.679,0.336-1.021,0.504c-0.718-1.779-1.432-3.541-2.069-5.053
			c-0.046-0.109-0.144-0.188-0.258-0.211c-0.116-0.022-0.234,0.012-0.32,0.095c-5.514,5.41-11.137,9.224-16.764,11.405l-3.788-0.277
			c-0.4,0-0.855,0-1.051,6.469c-0.097,3.168-0.083,6.988,0.033,9.973c0.218,5.555,0.639,5.58,1.011,5.602l28.076,1.569
			c0.038,0.002,0.076,0.003,0.114,0.003c0.563,0,1.092-0.218,1.482-0.614c0.402-0.41,0.62-0.963,0.612-1.558l-0.021-1.468
			c0.564-0.439,0.943-1.111,0.943-1.861v-17.102C349.1473,22.3245,348.1403,21.3415,346.8723,21.3925z M344.4503,24.5125
			l-12.965-0.949c4.326-0.465,8.604-1.465,12.78-3.016L344.4503,24.5125z M342.5333,20.3975c-5.39,1.827-10.938,2.76-16.529,2.766
			l-0.859-0.063c5.99-1.1,11.78-3.605,16.896-6.131L342.5333,20.3975z M338.6163,12.3205c0.59,1.406,1.234,2.999,1.882,4.604
			c-4.979,2.402-10.534,4.691-16.239,5.615C329.0873,20.2955,333.8943,16.8885,338.6163,12.3205z M347.1023,45.0725
			c-0.273,0.278-0.669,0.419-1.053,0.401l-27.938-1.56c-0.736-1.676-0.752-18.803-0.021-20.614l27.65,2.022
			c0.837,0.058,1.526,0.813,1.538,1.683l0.229,17.021C347.5143,44.4285,347.3703,44.7995,347.1023,45.0725z M348.4343,40.6875
			c0,0.306-0.094,0.591-0.244,0.84l-0.196-14.534c-0.019-1.232-1.006-2.303-2.202-2.383l-0.624-0.046l-0.109-2.384l1.845-0.075
			h0.064c0.823,0,1.469,0.65,1.469,1.481L348.4343,40.6875L348.4343,40.6875z"/>
		<path class="st34" d="M350.0483,12.5335c1.705-1.415,3.567-2.677,5.586-3.708c2.018-1.031,4.202-1.824,6.506-2.264
			c1.725-0.336,3.514-0.457,5.306-0.36l2.078-4.888l8.666,11.522l-14.312,1.747l2.008-4.728c-1.108-0.173-2.242-0.255-3.392-0.219
			c-2.021,0.063-4.072,0.444-6.066,1.092c-1.995,0.65-3.938,1.554-5.787,2.646c-1.844,1.103-3.617,2.369-5.22,3.851
			C346.7723,15.5045,348.3473,13.9525,350.0483,12.5335z"/>
		<path class="st2" d="M333.1973,48.1615c-9.914,0-17.949,0.862-17.949,1.924c0,1.063,8.035,1.924,17.949,1.924
			c9.913,0,17.95-0.861,17.95-1.924C351.1473,49.0235,343.1103,48.1615,333.1973,48.1615"/>
		<path class="st34" d="M296.9773,2.7545c2.188-0.36,4.433-0.509,6.694-0.38c2.261,0.127,4.547,0.546,6.76,1.33
			c1.656,0.58,3.263,1.379,4.761,2.366l4.264-3.168l1.664,14.322l-13.235-5.718l4.12-3.067c-0.871-0.709-1.809-1.353-2.816-1.9
			c-1.774-0.967-3.74-1.673-5.787-2.12c-2.051-0.446-4.187-0.647-6.334-0.639c-2.146,0.021-4.317,0.219-6.446,0.689
			C292.6513,3.6675,294.7943,3.1225,296.9773,2.7545z"/>
	</g>
	<g>
		<path class="st34" d="M116.6184,82.9272l-1.646,0.066l-0.059-1.287c-0.006-0.104-0.061-0.194-0.145-0.252
			c-0.085-0.057-0.192-0.066-0.288-0.031c-0.371,0.143-0.744,0.267-1.117,0.397l-0.483-3.358c-0.016-0.102-0.076-0.188-0.166-0.236
			c-0.093-0.045-0.199-0.045-0.291-0.003c-0.299,0.149-0.604,0.3-0.906,0.448c-0.639-1.584-1.275-3.152-1.843-4.498
			c-0.041-0.101-0.128-0.168-0.23-0.189c-0.103-0.02-0.21,0.012-0.286,0.084c-4.906,4.818-9.914,8.213-14.926,10.156l-3.372-0.246
			c-0.356,0-0.762,0-0.936,5.758c-0.086,2.822-0.074,6.223,0.031,8.881c0.191,4.945,0.566,4.969,0.896,4.986l25,1.398
			c0.033,0,0.067,0.002,0.1,0.002c0.507,0,0.976-0.193,1.323-0.547c0.358-0.365,0.552-0.857,0.545-1.389l-0.018-1.307
			c0.502-0.395,0.844-0.99,0.844-1.658v-15.224C118.6474,83.7552,117.7484,82.8802,116.6184,82.9272z M114.4614,85.7052
			l-11.542-0.848c3.853-0.412,7.662-1.303,11.379-2.684L114.4614,85.7052z M112.7554,82.0412c-4.8,1.627-9.74,2.457-14.718,2.463
			l-0.768-0.057c5.334-0.979,10.488-3.211,15.043-5.459L112.7554,82.0412z M109.2684,74.8482c0.523,1.252,1.098,2.671,1.676,4.099
			c-4.436,2.141-9.381,4.18-14.461,5.001C100.7834,81.9512,105.0624,78.9162,109.2684,74.8482z M116.8224,104.0092
			c-0.242,0.248-0.592,0.373-0.936,0.357l-24.875-1.392c-0.656-1.491-0.67-16.742-0.021-18.354l24.62,1.801
			c0.744,0.053,1.357,0.726,1.368,1.5l0.207,15.152C117.1914,103.4372,117.0614,103.7682,116.8224,104.0092z M118.0114,100.1052
			c0,0.271-0.086,0.525-0.218,0.749l-0.18-12.942c-0.013-1.096-0.893-2.049-1.958-2.119l-0.558-0.043l-0.097-2.121l1.642-0.064
			h0.058c0.733,0,1.311,0.578,1.311,1.316L118.0114,100.1052L118.0114,100.1052z"/>
		<path class="st2" d="M104.2564,106.7632c-9.474,0-17.147,0.824-17.147,1.838c0,1.016,7.675,1.838,17.147,1.838
			c9.471,0,17.146-0.822,17.146-1.838C121.4044,107.5872,113.7274,106.7632,104.2564,106.7632"/>
	</g>
	<g>
		<g>
			<path class="st10" d="M188.2484,100.9802c-6.398,0-11.604-5.115-11.604-11.4c0-6.287,5.203-11.399,11.604-11.399
				c6.4,0,11.604,5.112,11.604,11.399C199.8524,95.8652,194.6484,100.9802,188.2484,100.9802z"/>
			<path class="st11" d="M188.2484,98.1082c-4.785,0-8.68-3.827-8.68-8.528s3.895-8.526,8.68-8.526c4.788,0,8.68,3.825,8.68,8.526
				C196.9274,94.2812,193.0364,98.1082,188.2484,98.1082z"/>
			<path class="st12" d="M188.2484,81.2012c4.71,0,8.53,3.752,8.53,8.379c0,4.631-3.817,8.383-8.53,8.383
				c-4.709,0-8.527-3.752-8.527-8.383C179.7204,84.9532,183.5384,81.2012,188.2484,81.2012 M188.2484,78.7872
				c-6.06,0-10.988,4.842-10.988,10.793c0,5.953,4.93,10.797,10.988,10.797c6.058,0,10.988-4.844,10.988-10.797
				C199.2374,83.6282,194.3044,78.7872,188.2484,78.7872L188.2484,78.7872z"/>
		</g>
	</g>
	<g>
		<rect x="-31.2195" y="-32.5569" class="st35" width="243.4618" height="133.7943"/>
		<g>
			<path class="st36" d="M174.6259,69.7151l3.8836-8.4596h-1.2532l-1.786,4.1181l-1.8608-4.1181h-1.3403l2.5678,5.3088
				l-1.4889,3.1508H174.6259z M163.6599,67.2221v-3.5976c0-0.8935,0.5585-1.5134,1.3895-1.5134
				c0.8935,0,1.2655,0.5953,1.2655,1.3649v3.7462h1.1661v-3.6099c0-0.8556,0.5585-1.5012,1.3772-1.5012
				c0.8813,0,1.2655,0.583,1.2655,1.3649v3.7462h1.1538v-3.8701c0-1.5637-1.0175-2.2707-2.0596-2.2707
				c-0.7562,0-1.5257,0.2736-1.9971,1.1292c-0.3228-0.7696-1.0421-1.1292-1.786-1.1292c-0.6947,0-1.4397,0.3105-1.8116,0.9684
				v-0.7941h-1.1169v5.9666H163.6599z M157.9659,61.069c-1.786,0-3.0515,1.3526-3.0515,3.1631c0,1.8239,1.2655,3.1765,3.0515,3.1765
				c1.7871,0,3.0526-1.3526,3.0526-3.1765C161.0184,62.4215,159.7529,61.069,157.9659,61.069 M157.9659,66.3665
				c-0.9918,0-1.8597-0.745-1.8597-2.1345c0-1.3772,0.8679-2.121,1.8597-2.121c0.9929,0,1.8608,0.7439,1.8608,2.121
				C159.8266,65.6215,158.9588,66.3665,157.9659,66.3665 M149.6057,63.773c0-0.9047,0.4713-1.6374,1.3895-1.6374
				c1.0421,0,1.3894,0.6702,1.3894,1.5011v3.5853h1.1661v-3.783c0-1.328-0.707-2.3578-2.1344-2.3578
				c-0.6947,0-1.4017,0.2859-1.8362,1.0298v-0.8556h-1.1404v5.9666h1.1661V63.773z M143.8993,61.069
				c-1.7871,0-3.0514,1.3526-3.0514,3.1631c0,1.8239,1.2644,3.1765,3.0514,3.1765c1.786,0,3.0515-1.3526,3.0515-3.1765
				C146.9507,62.4215,145.6852,61.069,143.8993,61.069 M143.8993,66.3665c-0.9929,0-1.8608-0.745-1.8608-2.1345
				c0-1.3772,0.8679-2.121,1.8608-2.121c0.9918,0,1.8608,0.7439,1.8608,2.121C145.7601,65.6215,144.8911,66.3665,143.8993,66.3665
				 M137.3362,62.1479c1.0175,0,1.452,0.6824,1.6006,1.2655l1.0544-0.4468c-0.248-0.9047-1.0667-1.8977-2.6549-1.8977
				c-1.6988,0-3.0012,1.3023-3.0012,3.1631c0,1.8117,1.2778,3.1765,3.0135,3.1765c1.5514,0,2.407-1.0052,2.6929-1.8608
				l-1.0298-0.4468c-0.1363,0.4713-0.5462,1.2275-1.6631,1.2275c-0.9673,0-1.8228-0.7316-1.8228-2.0965
				C135.5257,62.8426,136.3935,62.1479,137.3362,62.1479 M133.3421,67.2221v-1.1292h-4.1315v-2.6918h3.7473v-1.1415h-3.7473v-2.7041
				h4.1315v-1.1292h-5.3467v8.7958H133.3421z M118.2949,61.2555l-1.5514,4.49l-1.3392-4.49h-1.2778l1.9602,5.9666h1.2275
				l1.5514-4.5403l1.5872,4.5403h1.204l1.9345-5.9666h-1.2275l-1.3158,4.49l-1.5503-4.49H118.2949z M112.4645,65.1748
				c-0.2234,0.6702-0.707,1.204-1.6754,1.204c-1.0041,0-1.7737-0.745-1.7982-1.8117h4.49c0.0123-0.0737,0.0257-0.2234,0.0257-0.3719
				c0-1.8608-1.0298-3.1263-2.866-3.1263c-1.5012,0-2.8538,1.2778-2.8538,3.1508c0,2.0228,1.4017,3.1888,3.0023,3.1888
				c1.3895,0,2.3444-0.8321,2.6795-1.8865L112.4645,65.1748z M109.0277,63.6245c0.0503-0.7696,0.6456-1.5257,1.6251-1.5257
				c1.0544,0,1.6128,0.6702,1.6374,1.5257H109.0277z M106.1628,67.2221v-8.7958h-1.2163v6.7485l-4.3918-6.7485h-1.6251v8.7958
				h1.2163v-7.1707l4.7514,7.1707H106.1628z M90.3583,59.6918l1.5257,3.945h-3.0269L90.3583,59.6918z M93.2735,67.2221h1.3146
				l-3.4982-8.7958h-1.4017l-3.4982,8.7958h1.3023l0.9304-2.4561h3.8958L93.2735,67.2221z"/>
			<path class="st36" d="M70.0106,34.8061c0,4.3147-3.4971,7.8118-7.8129,7.8118c-4.3136,0-7.8107-3.4971-7.8107-7.8118
				s3.4971-7.8118,7.8107-7.8118C66.5135,26.9943,70.0106,30.4914,70.0106,34.8061"/>
		</g>
		<g>
			<path class="st37" d="M35.4397,69.6124c-19.1921,0-34.8057-15.6135-34.8057-34.8057C0.6341,15.6135,16.2476,0,35.4397,0
				C46.361,0,56.7886,5.2283,63.3349,13.985l-12.5598,9.3878c-3.6546-4.8888-9.2437-7.6934-15.3354-7.6934
				c-10.546,0-19.1262,8.5813-19.1262,19.1274S24.8937,53.933,35.4397,53.933c5.9365,0,11.4396-2.6963,15.0997-7.3963
				l12.3722,9.6324C56.2603,64.7125,46.2471,69.6124,35.4397,69.6124"/>
			<path class="st37" d="M85.6908,34.853v-0.0592c0-4.4197,3.4524-8.1323,8.1558-8.1323c2.9777,0,4.8218,1.0901,6.2805,2.6817
				l-2.2316,2.3869c-1.1013-1.1493-2.2629-1.9446-4.079-1.9446c-2.6192,0-4.5235,2.2394-4.5235,4.9491v0.0592
				c0,2.77,1.9345,5.0094,4.7034,5.0094c1.6966,0,2.9464-0.7953,4.0768-1.9446l2.1735,2.121
				c-1.5481,1.7089-3.3642,2.9174-6.4302,2.9174C89.1432,42.8971,85.6908,39.2727,85.6908,34.853"/>
			<path class="st37" d="M101.6453,34.8239v-0.0592c0-4.4487,3.1855-8.1022,7.68-8.1022c5.0005,0,7.5303,3.8891,7.5303,8.3669
				c0,0.325-0.029,0.6489-0.0592,1.0019h-11.549c0.3865,2.5343,2.2026,3.9483,4.5236,3.9483c1.7569,0,3.0068-0.6478,4.2577-1.8552
				l2.1132,1.8552c-1.4889,1.7681-3.5429,2.9174-6.4301,2.9174C105.158,42.897,101.6453,39.6266,101.6453,34.8239 M113.2837,33.6745
				c-0.2379-2.2986-1.6073-4.0958-3.9886-4.0958c-2.2026,0-3.7506,1.6799-4.0779,4.0958H113.2837z"/>
			<rect x="120.0995" y="21.0343" class="st37" width="3.6021" height="21.5086"/>
			<path class="st37" d="M130.9212,40.1276v2.4159h-3.6021V21.0349h3.6021v8.5445c1.1605-1.6207,2.7979-2.9174,5.3277-2.9174
				c3.7205,0,7.3226,2.9174,7.3226,8.0731v0.0592c0,5.1557-3.5719,8.0731-7.3226,8.0731
				C133.6587,42.8674,132.0224,41.5707,130.9212,40.1276 M139.9102,34.7943v-0.0592c0-3.0045-2.054-4.9793-4.4945-4.9793
				c-2.4416,0-4.585,2.0026-4.585,4.9793v0.0592c0,3.0045,2.1434,4.9793,4.585,4.9793
				C137.8863,39.7735,139.9102,37.858,139.9102,34.7943"/>
			<path class="st37" d="M146.4882,36.886v-9.9004h3.6021v8.8394c0,2.417,1.2197,3.8009,3.3631,3.8009
				c2.0842,0,3.5429-1.4442,3.5429-3.859v-8.7813h3.601v15.5577h-3.601v-2.4159c-1.0131,1.4732-2.4706,2.7398-4.9122,2.7398
				C148.5422,42.8672,146.4882,40.5105,146.4882,36.886"/>
			<polygon class="st37" points="174.5569,26.9862 170.9258,32.1129 167.2935,26.9862 163.3653,26.9862 168.9309,34.646 
				163.1575,42.5427 166.9964,42.5427 170.8364,37.0921 174.7065,42.5427 178.6348,42.5427 172.8301,34.5578 178.3969,26.9862 			
				"/>
		</g>
	</g>
	<rect x="-15.3488" y="64.4737" class="st35" width="101.0396" height="53.7097"/>
	<path class="st36" d="M27.0776,91.3534c0,1.7326-1.4597,3.1374-3.2606,3.1374c-1.8004,0-3.2601-1.4047-3.2601-3.1374
		c0-1.7326,1.4597-3.1374,3.2601-3.1374C25.6179,88.2161,27.0776,89.6208,27.0776,91.3534"/>
	<g>
		<g>
			<path class="st34" d="M42.1558,91.4311v-0.0236c0-1.7867,1.3292-3.2541,3.2052-3.2541c2.0867,0,3.143,1.5618,3.143,3.3605
				c0,0.1305-0.0125,0.2605-0.0249,0.4026h-4.8202c0.1614,1.0176,0.9193,1.5854,1.888,1.5854c0.7331,0,1.2549-0.2601,1.7768-0.7451
				l0.882,0.7451c-0.6215,0.7103-1.4786,1.1717-2.6833,1.1717C43.6219,94.6737,42.1558,93.3603,42.1558,91.4311 M47.0129,90.9697
				c-0.0991-0.9232-0.6708-1.6451-1.6644-1.6451c-0.9193,0-1.5653,0.6747-1.7022,1.6451H47.0129z"/>
		</g>
		<rect x="49.8573" y="85.8933" class="st34" width="1.5035" height="8.6383"/>
		<g>
			<path class="st34" d="M60.8703,92.2596v-3.976h1.5034v3.5498c0,0.9708,0.509,1.5266,1.4035,1.5266
				c0.8695,0,1.4786-0.5798,1.4786-1.5498v-3.5266h1.503v6.2481h-1.503v-0.9704c-0.4228,0.5914-1.0313,1.1004-2.0498,1.1004
				C61.7273,94.6618,60.8703,93.715,60.8703,92.2596"/>
		</g>
		<polygon class="st34" points="72.5843,88.2836 71.0688,90.3424 69.5534,88.2836 67.9134,88.2836 70.2362,91.36 67.8267,94.5313 
			69.4289,94.5313 71.0315,92.3424 72.6465,94.5313 74.286,94.5313 71.8637,91.3248 74.1869,88.2836 		"/>
		<path class="st34" d="M14.5259,105.4031C6.5164,105.4031,0,99.1322,0,91.4244c0-7.7082,6.5164-13.9787,14.5259-13.9787
			c4.558,0,8.91,2.0996,11.6413,5.6164l-5.2417,3.7704c-1.5245-1.9635-3.8571-3.0897-6.3996-3.0897
			c-4.4013,0-7.9821,3.446-7.9821,7.6816c0,4.2352,3.5807,7.6816,7.9821,7.6816c2.4777,0,4.7743-1.0828,6.3014-2.9704l5.1636,3.8683
			C23.2153,103.4353,19.0363,105.4031,14.5259,105.4031"/>
		<path class="st34" d="M35.4974,91.4431v-0.0236c0-1.7751,1.4412-3.2661,3.4039-3.2661c1.2421,0,2.0125,0.4378,2.6211,1.0768
			l-0.9318,0.9584c-0.4597-0.4614-0.9442-0.7807-1.7017-0.7807c-1.0931,0-1.888,0.8992-1.888,1.988v0.0236
			c0,1.1125,0.8073,2.0116,1.9627,2.0116c0.7077,0,1.2296-0.3193,1.7017-0.7811l0.9069,0.8524
			c-0.6459,0.6858-1.4039,1.1713-2.6833,1.1713C36.9386,94.6736,35.4974,93.2178,35.4974,91.4431"/>
		<path class="st34" d="M54.3735,93.5612v0.9704h-1.503v-8.6383h1.503v3.4318c0.4846-0.6507,1.1678-1.1717,2.2236-1.1717
			c1.5528,0,3.0558,1.1717,3.0558,3.2425v0.0236c0,2.0708-1.4906,3.2421-3.0558,3.2421
			C55.5164,94.6616,54.8331,94.141,54.3735,93.5612 M58.125,91.4195v-0.0236c0-1.2069-0.8571-2-1.8756-2
			c-1.0189,0-1.9133,0.8047-1.9133,2v0.0236c0,1.2069,0.8944,1.9996,1.9133,1.9996C57.2804,93.4191,58.125,92.65,58.125,91.4195"/>
	</g>
	<rect x="179.2471" y="-25.0382" class="st35" width="122.7665" height="134.5639"/>
	<path class="st36" d="M268.0519,27.6052c0,3.3806-2.7403,6.1214-6.1214,6.1214c-3.3806,0-6.1209-2.7408-6.1209-6.1214
		c0-3.3806,2.7403-6.1209,6.1209-6.1209C265.3116,21.4844,268.0519,24.2247,268.0519,27.6052"/>
	<g>
		<path class="st34" d="M240.9642,54.8777c-15.038,0-27.2723-12.2342-27.2723-27.2723s12.2342-27.2718,27.2723-27.2718
			c8.557,0,16.7281,4.0959,21.8571,10.9573l-9.8415,7.3555c-2.8627-3.8304-7.2422-6.0272-12.0156-6.0272
			c-8.2633,0-14.9861,6.7229-14.9861,14.9861s6.7229,14.9867,14.9861,14.9867c4.6515,0,8.9635-2.1127,11.8307-5.795l9.6944,7.547
			C257.2782,51.0382,249.4326,54.8777,240.9642,54.8777"/>
		<path class="st34" d="M204.4593,77.9219v-0.0463c0-3.4627,2.7056-6.3717,6.3904-6.3717c2.3328,0,3.7785,0.8538,4.9215,2.1011
			l-1.749,1.8699c-0.8634-0.9007-1.7732-1.5238-3.1957-1.5238c-2.0522,0-3.5448,1.7545-3.5448,3.8788v0.0458
			c0,2.1706,1.5157,3.9251,3.6848,3.9251c1.3293,0,2.3086-0.6236,3.1952-1.5238l1.7026,1.6623
			c-1.213,1.3384-2.636,2.285-5.0379,2.285C207.1649,84.2242,204.4593,81.3846,204.4593,77.9219"/>
		<path class="st34" d="M216.9604,77.8986v-0.0458c0-3.4858,2.4955-6.3491,6.0176-6.3491c3.918,0,5.9008,3.0471,5.9008,6.5566
			c0,0.2539-0.0237,0.5078-0.0468,0.7848h-9.0491c0.3022,1.9857,1.7253,3.0934,3.5443,3.0934c1.3762,0,2.356-0.5073,3.3357-1.4538
			l1.6558,1.4538c-1.1662,1.3858-2.7756,2.2859-5.0374,2.2859C219.7123,84.2245,216.9604,81.662,216.9604,77.8986 M226.0795,76.9984
			c-0.1864-1.8009-1.2593-3.2093-3.1252-3.2093c-1.7258,0-2.9383,1.3163-3.1952,3.2093H226.0795z"/>
		<rect x="231.4203" y="67.0945" class="st34" width="2.8224" height="16.853"/>
		<path class="st34" d="M239.8988,82.0543v1.893h-2.8219v-16.853h2.8219v6.6946c0.9097-1.2689,2.1928-2.2854,4.175-2.2854
			c2.9156,0,5.7375,2.2854,5.7375,6.3259v0.0463c0,4.04-2.7988,6.3254-5.7375,6.3254
			C242.0447,84.2012,240.7617,83.1857,239.8988,82.0543 M246.9425,77.8758v-0.0463c0-2.355-1.6094-3.9019-3.5216-3.9019
			c-1.9127,0-3.5921,1.5701-3.5921,3.9019v0.0463c0,2.3545,1.6795,3.9014,3.5921,3.9014
			C245.3568,81.7773,246.9425,80.2766,246.9425,77.8758"/>
		<path class="st34" d="M252.0967,79.5148v-7.757h2.8224v6.9259c0,1.8935,0.9561,2.9781,2.6355,2.9781
			c1.6326,0,2.7756-1.1314,2.7756-3.0239v-6.88h2.8219v12.1899h-2.8219v-1.893c-0.7939,1.1541-1.9359,2.1464-3.8485,2.1464
			C253.7061,84.2011,252.0967,82.3544,252.0967,79.5148"/>
		<polygon class="st34" points="274.0897,71.7578 271.2446,75.775 268.399,71.7578 265.3206,71.7578 269.6815,77.7598 
			265.1574,83.9472 268.1657,83.9472 271.1746,79.6765 274.2065,83.9472 277.2849,83.9472 272.7371,77.6908 277.0985,71.7578 		"/>
	</g>
</g>
</svg>
